<svg width="139" height="102" viewBox="0 0 139 102" fill="none" xmlns="http://www.w3.org/2000/svg">
<path d="M139 0H0V102H139V0Z" fill="#44D62C"/>
<path d="M10.8154 47.4562V11.71C10.817 11.5258 10.8914 11.3496 11.0224 11.2193C11.1534 11.0891 11.3306 11.0152 11.5158 11.0136H27.098C29.4669 10.9545 31.8319 11.2347 34.1205 11.8456C35.7154 12.2694 37.1967 13.0375 38.4592 14.0951C39.4295 14.9384 40.191 15.993 40.6844 17.1767C41.1185 18.2848 41.3413 19.4635 41.3414 20.6527C41.3739 21.9503 41.0412 23.2311 40.3807 24.3506C39.3306 26.0977 37.7478 27.4664 35.8622 28.258C35.8389 28.2659 35.8186 28.2808 35.8042 28.3007C35.7899 28.3206 35.7821 28.3445 35.7821 28.369C35.7821 28.3935 35.7899 28.4174 35.8042 28.4373C35.8186 28.4572 35.8389 28.4721 35.8622 28.4799C36.9165 28.8231 37.9273 29.2864 38.8745 29.8605C40.1483 30.6116 41.2519 31.6168 42.1161 32.8126C43.0738 34.1728 43.5591 35.8065 43.4983 37.4658C43.4983 41.1637 42.1079 43.859 39.327 45.5518C36.5461 47.2446 32.4697 48.1157 27.098 48.165H11.522C11.3341 48.1634 11.1543 48.088 11.022 47.9552C10.8897 47.8225 10.8154 47.6432 10.8154 47.4562ZM19.8338 25.9592H26.5402C27.71 25.979 28.8631 25.6807 29.8748 25.0964C30.8541 24.5252 31.3437 23.533 31.3437 22.1196C31.3437 20.5233 30.8355 19.4509 29.8128 18.8901C28.8108 18.3406 27.6844 18.0543 26.5402 18.058H19.8338V25.9592ZM19.8338 41.1575H26.4596C27.3574 41.1526 28.2524 41.0576 29.131 40.874C30.0362 40.7048 30.8721 40.2764 31.5359 39.6414C31.8936 39.2417 32.166 38.774 32.3364 38.2665C32.5069 37.759 32.5719 37.2224 32.5276 36.6892C32.5646 36.181 32.4957 35.6707 32.325 35.1903C32.1544 34.7098 31.8857 34.2696 31.5359 33.8973C30.8604 33.2787 30.0296 32.8528 29.131 32.6647C28.2539 32.4694 27.3584 32.3681 26.4596 32.3627H19.8338V41.1575Z" fill="#EFEFE6"/>
<path d="M63.8413 49.1142C61.1861 49.1429 58.5512 48.6507 56.0874 47.6659C53.774 46.7384 51.6785 45.3451 49.9326 43.5735C48.1787 41.7942 46.7968 39.6869 45.8667 37.3734C44.8695 34.8969 44.3684 32.2507 44.3915 29.5832C44.3668 26.9136 44.868 24.265 45.8667 21.7868C46.7937 19.4841 48.174 17.3888 49.9265 15.6237C51.68 13.8675 53.7739 12.4837 56.0812 11.556C61.066 9.63628 66.5919 9.63628 71.5766 11.556C73.8945 12.4879 76.0018 13.8708 77.7748 15.6237C79.5355 17.3809 80.9151 19.4785 81.8284 21.7868C82.7953 24.272 83.2729 26.9188 83.2354 29.5832C83.2673 32.2463 82.7854 34.8907 81.816 37.3734C80.9044 39.6921 79.5259 41.801 77.7651 43.5709C76.0043 45.3408 73.8984 46.7343 71.5766 47.6659C69.1183 48.6472 66.4902 49.1393 63.8413 49.1142ZM63.8413 39.8695C65.5976 39.9197 67.3274 39.4359 68.7999 38.4828C70.1595 37.5617 71.233 36.2808 71.8989 34.7849C72.6254 33.1558 72.989 31.3898 72.965 29.6078C72.989 27.8259 72.6254 26.0599 71.8989 24.4308C71.2345 22.9257 70.1613 21.6345 68.7999 20.7021C67.3298 19.7406 65.6005 19.2463 63.8413 19.2846C62.0845 19.2296 60.3532 19.7138 58.8828 20.6713C57.5151 21.6067 56.4306 22.8961 55.7465 24.4C54.9958 26.0249 54.6169 27.7951 54.6371 29.5832C54.612 31.3678 54.9845 33.1358 55.7279 34.7602C56.4132 36.2551 57.4981 37.5342 58.8642 38.4581C60.3351 39.4328 62.0745 39.9282 63.8413 39.8756V39.8695Z" fill="#EFEFE6"/>
<path d="M83.9294 47.0987L95.2844 29.583C95.3588 29.4705 95.3984 29.3387 95.3984 29.204C95.3984 29.0693 95.3588 28.9376 95.2844 28.825L83.9728 12.1229C83.9017 12.0189 83.8605 11.8977 83.8536 11.7722C83.8467 11.6466 83.8744 11.5216 83.9337 11.4106C83.9931 11.2996 84.0817 11.2069 84.1902 11.1423C84.2987 11.0777 84.4228 11.0439 84.5492 11.0443H92.8795C93.002 11.0391 93.1237 11.066 93.2325 11.1222C93.3413 11.1785 93.4333 11.2621 93.4994 11.3648L101.978 24.6525C101.991 24.6729 102.009 24.6897 102.03 24.7014C102.051 24.713 102.075 24.7191 102.099 24.7191C102.123 24.7191 102.147 24.713 102.168 24.7014C102.19 24.6897 102.207 24.6729 102.22 24.6525L110.73 11.3525C110.794 11.2551 110.882 11.1749 110.984 11.119C111.087 11.0631 111.202 11.0332 111.319 11.032H119.625C119.751 11.0325 119.874 11.0669 119.982 11.1314C120.09 11.196 120.179 11.2884 120.239 11.3989C120.298 11.5093 120.327 11.6337 120.321 11.759C120.316 11.8843 120.276 12.0057 120.207 12.1105L108.927 28.8127C108.851 28.9259 108.811 29.0588 108.811 29.1948C108.811 29.3307 108.851 29.4637 108.927 29.5769L120.244 47.0987C120.312 47.2029 120.351 47.3235 120.356 47.4477C120.361 47.5718 120.332 47.695 120.272 47.8042C120.213 47.9134 120.124 48.0045 120.017 48.068C119.909 48.1315 119.787 48.165 119.662 48.1649H111.331C111.208 48.1688 111.085 48.1401 110.976 48.0816C110.868 48.0232 110.776 47.9371 110.712 47.8321L102.226 33.8972C102.214 33.8755 102.196 33.8573 102.174 33.8447C102.152 33.8321 102.128 33.8255 102.102 33.8255C102.077 33.8255 102.052 33.8321 102.031 33.8447C102.009 33.8573 101.991 33.8755 101.978 33.8972L93.4684 47.8321C93.4043 47.9375 93.3131 48.024 93.2041 48.0825C93.0951 48.141 92.9723 48.1695 92.8486 48.1649H84.5182C84.3927 48.1661 84.2692 48.1335 84.1609 48.0704C84.0526 48.0074 83.9635 47.9163 83.9031 47.8069C83.8427 47.6975 83.8132 47.5739 83.8179 47.4492C83.8225 47.3245 83.861 47.2034 83.9294 47.0987Z" fill="#EFEFE6"/>
<path d="M10.7539 90.4009V54.5314C10.7539 54.3467 10.8277 54.1696 10.959 54.039C11.0904 53.9084 11.2685 53.835 11.4543 53.835H18.7123C18.8274 53.8342 18.9407 53.8627 19.0416 53.9177C19.1425 53.9727 19.2276 54.0524 19.2888 54.1493L32.1004 74.235C32.1151 74.2593 32.1374 74.2782 32.164 74.2887C32.1905 74.2991 32.2198 74.3006 32.2473 74.2929C32.2748 74.2852 32.2989 74.2687 32.3161 74.246C32.3332 74.2233 32.3424 74.1956 32.3421 74.1672V54.5314C32.3421 54.4394 32.3604 54.3484 32.396 54.2635C32.4316 54.1786 32.4837 54.1015 32.5494 54.0368C32.6151 53.972 32.6931 53.9209 32.7788 53.8862C32.8645 53.8516 32.9562 53.8342 33.0487 53.835H40.7034C40.8892 53.835 41.0673 53.9084 41.1987 54.039C41.33 54.1696 41.4038 54.3467 41.4038 54.5314V90.4009C41.4038 90.5856 41.33 90.7628 41.1987 90.8934C41.0673 91.024 40.8892 91.0974 40.7034 91.0974H33.9722C33.8497 91.1025 33.728 91.0757 33.6193 91.0194C33.5105 90.9632 33.4185 90.8796 33.3524 90.7769L20.0573 70.081C20.0426 70.0567 20.0203 70.0378 19.9937 70.0274C19.9672 70.0169 19.9379 70.0154 19.9104 70.0231C19.883 70.0308 19.8588 70.0473 19.8416 70.07C19.8245 70.0927 19.8154 70.1204 19.8156 70.1488V90.4009C19.8156 90.4929 19.7973 90.584 19.7617 90.6689C19.7261 90.7538 19.674 90.8308 19.6083 90.8956C19.5426 90.9603 19.4647 91.0115 19.379 91.0461C19.2933 91.0807 19.2015 91.0982 19.109 91.0974H11.4543C11.2685 91.0974 11.0904 91.024 10.959 90.8934C10.8277 90.7628 10.7539 90.5856 10.7539 90.4009Z" fill="#EFEFE6"/>
<path d="M91.8322 90.5612L83.4399 54.6856C83.4154 54.5836 83.4146 54.4775 83.4375 54.3751C83.4605 54.2728 83.5065 54.177 83.5723 54.0951C83.638 54.0131 83.7216 53.9471 83.8168 53.902C83.912 53.857 84.0162 53.8341 84.1217 53.8351H92.6813C92.8448 53.8339 93.0034 53.8901 93.1293 53.9939C93.2551 54.0976 93.3401 54.2422 93.3693 54.4021L97.7762 77.4461C97.783 77.4779 97.8005 77.5064 97.8259 77.5268C97.8513 77.5473 97.883 77.5584 97.9157 77.5584C97.9484 77.5584 97.98 77.5473 98.0054 77.5268C98.0308 77.5064 98.0484 77.4779 98.0551 77.4461L103.094 55.2588C103.128 55.1044 103.215 54.9664 103.339 54.8677C103.463 54.7689 103.617 54.7156 103.776 54.7164H111.046C111.205 54.7152 111.358 54.7678 111.482 54.8653C111.606 54.9627 111.693 55.0994 111.728 55.2526L116.817 77.4399C116.817 77.4775 116.832 77.5136 116.859 77.5401C116.885 77.5667 116.922 77.5817 116.96 77.5817C116.997 77.5817 117.034 77.5667 117.06 77.5401C117.087 77.5136 117.102 77.4775 117.102 77.4399L120.864 54.4144C120.885 54.2455 120.967 54.0899 121.095 53.9766C121.223 53.8632 121.387 53.7998 121.559 53.7981H130.106C130.211 53.7983 130.315 53.822 130.409 53.8674C130.504 53.9128 130.587 53.9788 130.652 54.0604C130.718 54.1421 130.764 54.2374 130.787 54.3392C130.811 54.441 130.811 54.5468 130.788 54.6486L122.464 90.5243C122.427 90.6769 122.34 90.8129 122.216 90.9103C122.093 91.0076 121.939 91.0605 121.782 91.0605H113.259C113.101 91.0616 112.947 91.0091 112.823 90.9116C112.7 90.8141 112.613 90.6775 112.577 90.5243L107.371 68.0904C107.364 68.0586 107.347 68.0301 107.321 68.0097C107.296 67.9892 107.264 67.9781 107.232 67.9781C107.199 67.9781 107.167 67.9892 107.142 68.0097C107.116 68.0301 107.099 68.0586 107.092 68.0904L101.886 90.5243C101.849 90.6769 101.762 90.8129 101.638 90.9103C101.515 91.0076 101.362 91.0605 101.204 91.0605H92.5264C92.3714 91.0654 92.2192 91.019 92.0936 90.9287C91.9679 90.8383 91.876 90.7091 91.8322 90.5612Z" fill="#EFEFE6"/>
<path d="M64.021 92.0465C61.3577 92.075 58.7148 91.5829 56.2423 90.5981C53.9121 89.6698 51.8014 88.2699 50.0442 86.4873C48.2896 84.6978 46.906 82.5828 45.972 80.2625C44.0302 75.2252 44.0302 69.6517 45.972 64.6143C46.9018 62.2992 48.2861 60.1915 50.0442 58.4142C51.811 56.6509 53.9197 55.2628 56.2423 54.3342C61.2484 52.4029 66.7998 52.4029 71.8059 54.3342C74.1242 55.2709 76.2314 56.6579 78.0041 58.4142C79.7763 60.1813 81.1644 62.2917 82.0825 64.6143C83.9937 69.6573 83.9937 75.2196 82.0825 80.2625C81.164 82.5883 79.7793 84.7039 78.0126 86.4807C76.2459 88.2575 74.1342 89.6584 71.8059 90.5981C69.3312 91.5825 66.6863 92.0745 64.021 92.0465ZM64.021 82.8018C65.8066 82.8449 67.562 82.3391 69.0477 81.3534C70.4094 80.416 71.4823 79.1208 72.1468 77.6124C72.8504 75.9685 73.2131 74.2003 73.2131 72.4138C73.2131 70.6272 72.8504 68.859 72.1468 67.2152C71.4823 65.7067 70.4094 64.4116 69.0477 63.4741C67.5563 62.5059 65.8013 62.0174 64.021 62.0751C62.2631 62.0254 60.5322 62.5138 59.0625 63.4741C57.6893 64.4121 56.6005 65.7059 55.9138 67.2152C55.1909 68.8541 54.8177 70.6242 54.8177 72.4138C54.8177 74.2034 55.1909 75.9735 55.9138 77.6124C56.5971 79.1202 57.6815 80.4137 59.0501 81.3534C60.5204 82.3249 62.2562 82.8221 64.021 82.7771V82.8018Z" fill="#EFEFE6"/>
<path d="M0.5 0.5H138.5V101.5H0.5V0.5Z" stroke="#260563"/>
</svg>
