<?xml version="1.0" encoding="utf-8"?>
<!-- Generator: Adobe Illustrator 17.0.0, SVG Export Plug-In . SVG Version: 6.00 Build 0)  -->
<!DOCTYPE svg PUBLIC "-//W3C//DTD SVG 1.0//EN" "http://www.w3.org/TR/2001/REC-SVG-20010904/DTD/svg10.dtd">
<svg version="1.0" id="Layer_1" xmlns="http://www.w3.org/2000/svg" xmlns:xlink="http://www.w3.org/1999/xlink" x="0px" y="0px"
	 width="259.1px" height="97.365px" viewBox="0 0 259.1 97.365" enable-background="new 0 0 259.1 97.365" xml:space="preserve">
<g>
	<polygon fill="#FEFEFE" points="232.802,0.825 247.862,13.464 228.137,36.976 213.081,24.338 	"/>
	<path fill="#E31E24" d="M232.731,0l0.448,0.376l15.059,12.639l0.449,0.377l-0.376,0.449l-19.722,23.512l-0.377,0.449l-0.449-0.376
		l-15.058-12.639l-0.449-0.377l0.376-0.449l19.724-23.512L232.731,0z M232.876,1.65l-18.97,22.615l14.161,11.885l18.97-22.614
		L232.876,1.65z"/>
	<g>
		<path fill="#E31E24" d="M231.219,19.116l-17.83,5.806l-0.364-1.116L230.856,18l0.766,0.608L231.219,19.116z M231.621,18.608
			l-0.033,0.387l-0.369,0.121L231.621,18.608z M233.144,0.934l-1.523,17.675l-1.169-0.101l1.524-17.675L233.144,0.934z"/>
	</g>
	<path fill="#005AA5" d="M2.781,42.728c-0.248-0.702-0.463-1.38-0.644-2.03c-0.179-0.645-0.322-1.255-0.429-1.831
		c-0.113-0.61-0.195-1.214-0.246-1.81c-0.051-0.604-0.076-1.254-0.076-1.95c0-1.584,0.185-3.007,0.555-4.269
		c0.377-1.288,0.946-2.401,1.704-3.339v0.003c0.944-1.17,2.144-2.046,3.598-2.627c1.424-0.571,3.086-0.856,4.981-0.856
		c3.517,0,6.528,1.188,9.032,3.561c2.449,2.322,4.389,5.777,5.819,10.364l-0.003-0.007c0.75,2.337,1.426,5.455,2.024,9.356
		c0.426,2.782,0.816,5.947,1.166,9.498c0.013-0.051,0.025-0.102,0.039-0.153c0.736-2.904,1.82-7.199,3.251-12.886
		c1.615-6.461,3.48-11.325,5.593-14.591c2.219-3.428,4.736-5.143,7.552-5.143c1.002,0,1.927,0.181,2.773,0.54
		c0.85,0.361,1.608,0.897,2.274,1.608c0.656,0.702,1.15,1.449,1.483,2.241c0.336,0.802,0.505,1.645,0.505,2.526
		c0,2.635-2.604,5.831-7.808,9.588l-0.004,0.003c-2.918,2.079-5.391,4.402-7.414,6.968c-2.016,2.556-3.582,5.347-4.696,8.374v-0.003
		c-0.314,0.866-0.577,1.746-0.786,2.643c-0.208,0.894-0.361,1.793-0.459,2.697c-0.098,0.899-0.173,1.896-0.225,2.992
		c-0.051,1.083-0.076,2.227-0.076,3.429v4.295c0,1.815,0.357,3.952,1.071,6.411c0.831,2.868,1.449,5.141,1.852,6.816
		c0.424,1.757,0.636,2.952,0.636,3.585c0,1.15-0.18,2.229-0.537,3.234c-0.36,1.014-0.897,1.943-1.608,2.79
		c-1.464,1.738-3.217,2.608-5.259,2.608c-0.958,0-1.861-0.252-2.711-0.754c-0.816-0.482-1.573-1.197-2.271-2.143l0.004,0.003
		c-0.682-0.924-1.195-1.861-1.537-2.809c-0.346-0.964-0.52-1.941-0.52-2.931c0-0.272,0.357-1.673,1.073-4.198
		c0.691-2.439,1.735-6.021,3.131-10.746c0.644-2.174,1.127-4.172,1.451-5.989c0.319-1.795,0.479-3.407,0.479-4.837
		c0-3.251-0.329-6.174-0.988-8.769c-0.652-2.572-1.628-4.822-2.927-6.751c-1.438-2.138-3.172-3.739-5.204-4.803
		c-2.034-1.066-4.378-1.601-7.032-1.601c-1.316,0-2.528,0.173-3.635,0.517c-0.562,0.175-1.168,0.396-1.817,0.666
		c-0.642,0.267-1.326,0.582-2.052,0.945C3.47,43.36,2.926,43.141,2.781,42.728L2.781,42.728z M3.968,41.384
		c0.462-0.218,0.912-0.418,1.349-0.601c0.68-0.281,1.333-0.52,1.956-0.713c1.264-0.393,2.629-0.59,4.092-0.59
		c2.908,0,5.492,0.593,7.751,1.775c2.263,1.186,4.188,2.96,5.776,5.321c1.4,2.079,2.449,4.492,3.146,7.238
		c0.379,1.496,0.655,3.092,0.827,4.785c-0.391-4.244-0.828-7.937-1.309-11.077c-0.587-3.83-1.242-6.867-1.963-9.112l-0.003-0.006
		c-1.35-4.33-3.152-7.563-5.406-9.7c-2.198-2.085-4.853-3.128-7.96-3.128c-1.702,0-3.171,0.247-4.403,0.739
		c-1.204,0.481-2.192,1.202-2.966,2.159v0.003c-0.631,0.78-1.106,1.714-1.423,2.797c-0.326,1.11-0.488,2.387-0.488,3.831
		c0,0.611,0.025,1.219,0.076,1.822c0.053,0.611,0.124,1.164,0.216,1.657c0.098,0.527,0.23,1.094,0.398,1.697
		C3.731,40.635,3.844,41.001,3.968,41.384L3.968,41.384z M28.941,59.449c0.089,1.128,0.133,2.3,0.133,3.512
		c0,1.518-0.167,3.219-0.503,5.104c-0.331,1.862-0.829,3.916-1.493,6.16c-1.384,4.684-2.427,8.259-3.125,10.728
		c-0.676,2.382-1.013,3.643-1.013,3.778c0,0.81,0.144,1.613,0.43,2.407c0.292,0.811,0.731,1.613,1.317,2.407l0.003,0.003
		c0.57,0.771,1.172,1.347,1.808,1.723c0.602,0.356,1.243,0.535,1.92,0.535c1.557,0,2.913-0.686,4.066-2.055
		c0.595-0.709,1.042-1.477,1.335-2.304c0.295-0.834,0.444-1.74,0.444-2.717c0-0.512-0.197-1.587-0.591-3.226
		c-0.414-1.718-1.024-3.966-1.829-6.743c-0.758-2.613-1.137-4.894-1.137-6.844v-4.295c0-1.25,0.025-2.419,0.076-3.502
		c0.051-1.072,0.13-2.1,0.236-3.083c0.092-0.842,0.227-1.672,0.402-2.491c-0.488,1.921-0.754,2.943-0.794,3.065
		c-0.238,0.711-1.455,0.56-1.516-0.183C29.055,60.757,28.999,60.096,28.941,59.449L28.941,59.449z M31.848,56.867
		c0.149-0.513,0.316-1.023,0.502-1.533v-0.003c1.174-3.189,2.819-6.126,4.934-8.806c2.105-2.67,4.686-5.093,7.737-7.267
		l-0.004,0.003c4.772-3.442,7.159-6.219,7.159-8.327c0-0.673-0.128-1.314-0.384-1.924c-0.261-0.618-0.656-1.212-1.185-1.778
		c-0.521-0.556-1.102-0.972-1.745-1.243c-0.645-0.274-1.368-0.412-2.165-0.412c-2.254,0-4.338,1.477-6.25,4.43
		c-2.016,3.116-3.812,7.824-5.386,14.123C33.654,49.721,32.583,53.965,31.848,56.867L31.848,56.867z M74.178,24.019
		c3.215,0,6.592,0.78,10.128,2.338c1.809,0.797,3.18,1.679,4.11,2.643c1.006,1.041,1.508,2.177,1.508,3.407
		c0,0.731-0.11,1.439-0.331,2.124c-0.219,0.681-0.545,1.328-0.978,1.943c-0.447,0.636-0.921,1.119-1.418,1.446
		c-0.549,0.361-1.127,0.542-1.732,0.542c-1.454,0-4.383-0.581-8.786-1.745h-0.003c-1.035-0.279-2.019-0.488-2.947-0.627
		c-0.92-0.137-1.793-0.205-2.617-0.205c-1.521,0-2.94,0.108-4.261,0.325c-1.317,0.217-2.546,0.541-3.686,0.974
		c-1.064,0.403-1.853,0.889-2.363,1.452c-0.459,0.507-0.689,1.089-0.689,1.747c0,1.853,0.926,2.78,2.778,2.78
		c0.719,0,1.726-0.267,3.019-0.799c1.622-0.666,2.963-1.166,4.02-1.497c1.12-0.351,1.964-0.526,2.531-0.526
		c0.865,0,1.72,0.153,2.565,0.462c0.827,0.302,1.641,0.752,2.439,1.352c0.829,0.623,1.454,1.325,1.875,2.109
		c0.432,0.803,0.646,1.676,0.646,2.623c0,1.044-0.178,1.985-0.531,2.827c-0.359,0.854-0.898,1.599-1.614,2.233l-0.003,0.006
		c-0.71,0.617-1.517,1.081-2.416,1.391c-0.889,0.305-1.862,0.457-2.921,0.457c-0.652,0-1.453-0.156-2.405-0.469
		c-0.909-0.3-1.966-0.742-3.17-1.328h0.003c-1.158-0.56-2.105-0.98-2.842-1.262c-0.66-0.25-1.105-0.377-1.338-0.377
		c-1.751,0-2.636,0.927-2.636,2.779c0,1.129,0.333,2.113,0.994,2.953c0.693,0.88,1.751,1.62,3.171,2.222v-0.003
		c1.215,0.51,2.565,0.893,4.049,1.148c1.498,0.257,3.143,0.386,4.932,0.386c1.458,0,2.854-0.069,4.189-0.208
		c1.35-0.141,2.649-0.351,3.903-0.629c1.237-0.277,2.403-0.617,3.494-1.021c1.062-0.393,2.042-0.843,2.933-1.352l0.009-0.003
		c0.488-0.271,0.941-0.407,1.358-0.407c0.499,0,0.929,0.179,1.287,0.538c0.295,0.295,0.512,0.666,0.651,1.113
		c0.126,0.405,0.189,0.871,0.189,1.397c0,0.857-0.231,1.75-0.694,2.679c-0.001,0.001-0.036,0.06-0.036,0.061
		c-0.903,1.463-2.009,2.778-3.315,3.947c-1.3,1.162-2.812,2.191-4.534,3.085c-1.714,0.889-3.539,1.556-5.474,2
		c-1.933,0.444-3.969,0.666-6.107,0.666c-2.134,0-4.181-0.354-6.136-1.059c-1.95-0.704-3.809-1.758-5.574-3.162
		c-1.784-1.418-3.126-2.995-4.025-4.731c-0.908-1.75-1.362-3.648-1.362-5.693c0-1.222,0.177-2.385,0.53-3.49
		c0.353-1.104,0.88-2.138,1.582-3.103c0.691-0.951,1.502-1.817,2.431-2.594c0.577-0.483,1.201-0.933,1.872-1.35
		c-0.502-0.305-0.973-0.636-1.415-0.991c-0.805-0.652-1.502-1.382-2.091-2.188c-0.598-0.819-1.048-1.695-1.351-2.626
		c-0.302-0.931-0.454-1.906-0.454-2.926c0-2.06,0.497-3.935,1.491-5.623c0.982-1.672,2.444-3.145,4.384-4.415
		c1.904-1.25,3.959-2.188,6.166-2.812C69.357,24.331,71.697,24.019,74.178,24.019L74.178,24.019z M74.178,25.577
		c-2.345,0-4.544,0.292-6.599,0.874c-2.047,0.581-3.958,1.454-5.734,2.618c-1.741,1.142-3.04,2.441-3.897,3.898
		c-0.846,1.439-1.27,3.053-1.27,4.838c0,0.861,0.125,1.677,0.374,2.444c0.249,0.765,0.626,1.495,1.132,2.188
		c0.516,0.708,1.119,1.339,1.805,1.895c0.696,0.562,1.49,1.058,2.378,1.481c0.562,0.27,0.575,1.107,0.021,1.395
		c-1.05,0.545-1.995,1.168-2.832,1.869c-0.83,0.695-1.553,1.466-2.17,2.314c-0.607,0.835-1.061,1.724-1.363,2.664
		c-0.3,0.94-0.451,1.945-0.451,3.016c0,1.798,0.395,3.458,1.185,4.981c0.796,1.536,2,2.944,3.611,4.227
		c1.629,1.295,3.339,2.267,5.13,2.912c1.786,0.644,3.658,0.967,5.612,0.967c2.031,0,3.952-0.208,5.761-0.624
		c1.807-0.413,3.51-1.036,5.108-1.865c1.589-0.823,2.991-1.779,4.205-2.866c1.194-1.067,2.195-2.253,3.005-3.553
		c0.35-0.703,0.524-1.36,0.524-1.971c0-0.373-0.039-0.686-0.116-0.935c-0.064-0.206-0.154-0.367-0.269-0.481
		c-0.051-0.05-0.112-0.075-0.186-0.075c-0.155,0-0.356,0.068-0.604,0.206l0.009-0.003c-0.963,0.551-2.021,1.039-3.168,1.463
		c-1.136,0.418-2.368,0.776-3.695,1.073c-1.321,0.294-2.682,0.515-4.081,0.66c-1.413,0.147-2.86,0.222-4.347,0.222
		c-1.87,0-3.601-0.138-5.194-0.412c-1.607-0.276-3.07-0.691-4.39-1.245v-0.004c-1.67-0.707-2.935-1.604-3.791-2.689
		c-0.884-1.123-1.329-2.428-1.329-3.915c0-2.891,1.407-4.338,4.194-4.338c0.422,0,1.05,0.161,1.893,0.481
		c0.765,0.292,1.752,0.73,2.964,1.315h0.003c1.148,0.56,2.137,0.977,2.97,1.249c0.791,0.261,1.432,0.391,1.924,0.391
		c0.887,0,1.692-0.124,2.415-0.372c0.708-0.243,1.342-0.608,1.898-1.094l-0.003,0.007c0.534-0.472,0.938-1.03,1.207-1.673
		c0.272-0.649,0.41-1.391,0.41-2.225c0-0.69-0.152-1.318-0.458-1.887c-0.314-0.587-0.794-1.121-1.438-1.604
		c-0.672-0.504-1.353-0.882-2.038-1.132c-0.666-0.243-1.345-0.365-2.035-0.365c-0.414,0-1.104,0.151-2.068,0.454
		c-1.029,0.323-2.327,0.807-3.893,1.448c-1.489,0.613-2.692,0.92-3.608,0.92c-2.891,0-4.336-1.446-4.336-4.338
		c0-1.061,0.364-1.992,1.09-2.794c0.675-0.744,1.666-1.364,2.973-1.86c1.233-0.468,2.562-0.818,3.984-1.052
		c1.418-0.233,2.922-0.351,4.51-0.351c0.892,0,1.84,0.075,2.842,0.225c0.991,0.148,2.034,0.369,3.124,0.663h-0.003
		c4.266,1.126,7.062,1.689,8.391,1.689c0.293,0,0.584-0.096,0.873-0.286c0.341-0.224,0.676-0.57,1.005-1.038
		c0.345-0.489,0.602-0.998,0.771-1.523c0.168-0.521,0.251-1.071,0.251-1.649c0-0.814-0.355-1.591-1.068-2.33
		c-0.787-0.814-1.992-1.579-3.618-2.296C80.345,26.312,77.178,25.577,74.178,25.577L74.178,25.577z M112.636,53.186
		c1.521-1.773,2.89-3.581,4.108-5.424c1.509-2.285,2.786-4.623,3.83-7.015c1.039-2.378,1.82-4.896,2.341-7.554
		c0.521-2.658,0.782-5.457,0.782-8.396c0-0.215,0.239-0.601,0.433-0.696l0.736-0.369c0.181-0.09,0.624-0.058,0.79,0.058
		c1.004,0.698,1.929,1.586,2.774,2.659c0.835,1.059,1.591,2.299,2.27,3.721c0.68,1.422,1.189,2.928,1.53,4.515
		c0.338,1.579,0.508,3.234,0.508,4.962c0,2.608-0.42,5.283-1.263,8.021c-0.835,2.715-2.086,5.489-3.754,8.324l0.003-0.003
		c-1.373,2.373-3.092,4.851-5.155,7.43c-2.051,2.564-4.461,5.253-7.231,8.065c-0.081,0.082-0.438,0.234-0.553,0.234h-2.331
		c-0.39,0-0.779-0.39-0.779-0.779c0-1.224-0.062-2.531-0.185-3.922c-0.125-1.42-0.305-2.854-0.54-4.302
		c-0.239-1.479-0.594-3.144-1.061-4.995c-0.467-1.846-1.046-3.867-1.736-6.062l-0.007-0.019c-0.638-2.237-1.396-4.193-2.272-5.867
		v-0.003c-0.547-1.057-1.164-2.017-1.85-2.878c-0.683-0.857-1.43-1.617-2.243-2.274l0.043,0.037
		c-0.818-0.573-1.636-1.146-4.962-3.479c-1.093-0.919-1.919-1.894-2.48-2.926c-0.576-1.06-0.864-2.165-0.864-3.315
		c0-0.895,0.185-1.728,0.552-2.498c0.361-0.759,0.901-1.451,1.618-2.076v-0.003c0.709-0.616,1.518-1.081,2.424-1.391
		c0.891-0.305,1.869-0.457,2.933-0.457c1.816,0,3.389,0.527,4.717,1.581c1.295,1.028,2.336,2.548,3.123,4.561l-0.003-0.007
		c0.343,0.854,0.733,2.256,1.172,4.199c0.438,1.938,0.921,4.396,1.45,7.368l0.003,0.021c0.123,0.817,0.242,1.759,0.356,2.825
		c0.124,1.148,0.233,2.31,0.328,3.484c0.111,1.379,0.217,2.539,0.315,3.479C112.549,52.424,112.592,52.811,112.636,53.186
		L112.636,53.186z M112.661,55.508c-0.428,0.472-1.256,0.217-1.346-0.414c-0.122-0.856-0.241-1.829-0.355-2.913
		c-0.125-1.187-0.235-2.358-0.328-3.517c-0.109-1.357-0.215-2.507-0.315-3.442c-0.109-1.021-0.227-1.943-0.35-2.764l0.003,0.021
		c-0.534-3-1.012-5.433-1.433-7.296c-0.42-1.859-0.786-3.182-1.098-3.962l-0.004-0.006c-0.685-1.751-1.566-3.054-2.642-3.908
		c-1.044-0.827-2.293-1.24-3.75-1.24c-0.897,0-1.709,0.123-2.434,0.371c-0.708,0.242-1.342,0.606-1.9,1.094v-0.003
		c-0.551,0.479-0.963,1.005-1.234,1.575c-0.266,0.559-0.399,1.168-0.399,1.829c0,0.894,0.224,1.752,0.669,2.572
		c0.462,0.85,1.169,1.676,2.122,2.475l2.398,1.676c0.817,0.573,1.636,1.146,2.453,1.718c0.001,0.001,0.042,0.036,0.043,0.037
		c0.903,0.732,1.731,1.569,2.48,2.512c0.745,0.938,1.417,1.982,2.014,3.134v-0.003c0.923,1.763,1.72,3.816,2.389,6.159l-0.006-0.019
		c0.699,2.224,1.286,4.272,1.76,6.147c0.473,1.872,0.836,3.582,1.087,5.128c0.255,1.58,0.443,3.051,0.563,4.412
		c0.099,1.117,0.157,2.209,0.177,3.276h1.235c2.614-2.668,4.912-5.239,6.892-7.716c2.026-2.533,3.702-4.945,5.027-7.234l0.003-0.003
		c1.604-2.728,2.808-5.394,3.607-7.995c0.794-2.58,1.19-5.102,1.19-7.564c0-1.626-0.157-3.173-0.473-4.64
		c-0.313-1.461-0.785-2.85-1.414-4.167c-0.63-1.32-1.326-2.463-2.086-3.429c-0.609-0.774-1.263-1.435-1.957-1.983
		c-0.035,2.806-0.304,5.494-0.808,8.062c-0.542,2.762-1.357,5.389-2.444,7.878c-1.083,2.477-2.401,4.894-3.96,7.251
		C116.483,50.975,114.69,53.271,112.661,55.508z M143.983,24.019c1.068,0,2.008,0.15,2.816,0.451
		c0.843,0.313,1.534,0.788,2.07,1.422c0.515,0.606,0.898,1.284,1.154,2.029c0.254,0.735,0.381,1.536,0.381,2.399
		c0,0.842-0.631,2.724-1.886,5.645c-1.214,2.819-3.039,6.697-5.476,11.634c-1.109,2.24-1.94,4.331-2.493,6.271
		c-0.547,1.916-0.819,3.679-0.819,5.289c0,1.018,0.195,1.9,0.587,2.646c0.15,0.289,0.355,0.502,0.613,0.641
		c0.281,0.152,0.645,0.228,1.089,0.228c0.355,0,0.663-0.072,0.919-0.219c0.264-0.149,0.494-0.382,0.689-0.697
		c0.227-0.366,0.397-0.755,0.511-1.165c0.112-0.407,0.169-0.845,0.169-1.312c0-0.498,0.087-0.99,0.259-1.474
		c0.168-0.468,0.419-0.928,0.751-1.379c0.372-0.505,0.862-0.884,1.467-1.133c0.567-0.235,1.229-0.353,1.982-0.353
		c1.118,0,2.12,0.178,3.004,0.533c0.904,0.365,1.674,0.911,2.307,1.638c0.619,0.711,1.085,1.532,1.395,2.461
		c0.302,0.906,0.453,1.913,0.453,3.019c0,1.365-0.218,2.6-0.653,3.704c-0.44,1.119-1.101,2.099-1.982,2.935
		c-1.746,1.657-4.031,2.486-6.854,2.486c-2.309,0-4.251-0.63-5.824-1.89c-1.55-1.24-2.719-3.082-3.503-5.524l-0.003-0.003
		c-0.504-1.6-0.883-3.647-1.135-6.142c-0.249-2.473-0.374-5.373-0.374-8.695V37.069c0-2.153,0.105-3.988,0.315-5.506
		c0.217-1.56,0.549-2.785,0.994-3.676c0.645-1.293,1.573-2.264,2.781-2.915C140.868,24.337,142.3,24.019,143.983,24.019
		L143.983,24.019z M143.983,25.577c-1.426,0-2.611,0.256-3.559,0.764c-0.917,0.495-1.625,1.242-2.124,2.239
		c-0.373,0.745-0.655,1.812-0.848,3.196c-0.198,1.429-0.297,3.193-0.297,5.293v12.395c0,3.302,0.12,6.15,0.361,8.544
		c0.239,2.373,0.598,4.314,1.074,5.824l-0.003-0.003c0.688,2.139,1.687,3.732,2.998,4.782c1.289,1.031,2.905,1.548,4.85,1.548
		c2.411,0,4.339-0.686,5.782-2.055c0.714-0.677,1.249-1.468,1.605-2.373c0.362-0.921,0.543-1.966,0.543-3.139
		c0-0.938-0.124-1.783-0.374-2.532c-0.242-0.728-0.606-1.37-1.09-1.926c-0.472-0.542-1.042-0.947-1.711-1.216
		c-0.691-0.279-1.5-0.418-2.425-0.418c-0.556,0-1.021,0.077-1.393,0.23c-0.335,0.139-0.602,0.345-0.803,0.615
		c-0.239,0.326-0.419,0.654-0.537,0.983c-0.112,0.313-0.169,0.631-0.169,0.95c0,0.596-0.077,1.172-0.23,1.726
		c-0.152,0.551-0.381,1.073-0.687,1.565c-0.336,0.543-0.75,0.955-1.242,1.234c-0.5,0.284-1.062,0.427-1.687,0.427
		c-0.701,0-1.311-0.14-1.825-0.417c-0.539-0.291-0.959-0.722-1.258-1.293c-0.509-0.97-0.764-2.093-0.764-3.365
		c0-1.751,0.292-3.655,0.88-5.715c0.577-2.021,1.441-4.199,2.597-6.531c2.409-4.881,4.223-8.734,5.438-11.561
		c1.172-2.724,1.759-4.4,1.759-5.03c0-0.691-0.098-1.323-0.295-1.895c-0.193-0.564-0.483-1.074-0.869-1.53
		c-0.363-0.43-0.838-0.754-1.425-0.971C145.635,25.693,144.876,25.577,143.983,25.577L143.983,25.577z M187.064,32.92
		c0.263-0.991,0.654-1.945,1.175-2.86c0.542-0.956,1.224-1.865,2.045-2.729l0.012-0.015c1.088-1.09,2.263-1.91,3.521-2.462
		c1.268-0.557,2.607-0.835,4.022-0.835c1.109,0,2.095,0.161,2.953,0.481c0.893,0.333,1.636,0.833,2.229,1.496
		c1.153,1.293,1.731,3.021,1.731,5.183c0,1.438-0.371,2.835-1.11,4.191c-0.72,1.32-1.79,2.595-3.209,3.82
		c-1.39,1.2-2.731,2.343-4.028,3.431c-1.219,1.021-2.465,2.052-3.735,3.086c-0.092,0.571-0.164,1.18-0.216,1.823
		c-0.062,0.756-0.093,1.523-0.093,2.302c0,1.435,0.099,2.73,0.295,3.891c0.193,1.144,0.483,2.158,0.864,3.038
		c0.349,0.801,0.81,1.396,1.38,1.782c0.563,0.382,1.257,0.572,2.08,0.572c0.455,0,0.933-0.076,1.431-0.228
		c0.522-0.159,1.063-0.396,1.621-0.713c0.663-0.376,1.297-0.659,1.899-0.85c0.63-0.197,1.229-0.296,1.796-0.296
		c1.641,0,3.111,0.812,4.411,2.439c0.62,0.774,1.09,1.588,1.407,2.44c0.321,0.858,0.481,1.742,0.481,2.648
		c0,1.065-0.235,2.042-0.708,2.926c-0.467,0.875-1.156,1.645-2.068,2.305c-0.882,0.64-1.823,1.122-2.826,1.445
		c-1.001,0.322-2.052,0.484-3.151,0.484c-2.776,0-5.099-0.857-6.967-2.569c-1.828-1.678-3.192-4.163-4.089-7.455v-0.003
		c-0.425-1.57-0.741-3.56-0.948-5.967c-0.168-1.946-0.268-4.196-0.298-6.75c-1.05,0.953-2.081,1.941-3.092,2.968
		c-1.415,1.435-2.792,2.944-4.132,4.528l-0.007,0.006c-1.06,1.224-2.105,2.492-3.134,3.804v0.003
		c-1.02,1.301-2.021,2.634-2.999,4.004c-0.275,0.9-0.723,1.77-1.344,2.605c-0.634,0.852-1.45,1.669-2.447,2.449
		c-1.002,0.784-2.032,1.376-3.089,1.772c-1.073,0.402-2.166,0.604-3.276,0.604c-0.868,0-1.693-0.145-2.477-0.433
		s-1.515-0.716-2.194-1.282c-0.7-0.582-1.229-1.263-1.586-2.037c-0.356-0.771-0.534-1.62-0.534-2.55
		c0-1.571,0.507-3.218,1.521-4.937c0.98-1.662,2.437-3.396,4.369-5.204l0.006-0.007c2.043-1.872,2.908-2.665,2.976-2.728
		c0.919-0.844,1.847-1.698,2.783-2.559V46.39c0-2.393-0.099-4.344-0.297-5.851c-0.191-1.45-0.465-2.478-0.82-3.083l0.006,0.012
		c-0.478-0.785-1.268-1.383-2.367-1.79c-1.18-0.438-2.706-0.657-4.575-0.657c-0.691,0-1.323-0.044-1.895-0.132
		c-0.587-0.091-1.116-0.23-1.584-0.417l-0.006-0.003c-0.843-0.348-1.481-0.84-1.915-1.477c-0.437-0.643-0.654-1.413-0.654-2.31
		c0-0.889,0.183-1.729,0.548-2.519c0.361-0.78,0.895-1.502,1.6-2.161c0.707-0.661,1.504-1.159,2.391-1.493
		c0.879-0.331,1.834-0.497,2.866-0.497c1.983,0,3.684,0.438,5.1,1.316c1.422,0.879,2.534,2.188,3.334,3.923l-0.003-0.003
		c0.646,1.377,1.127,3.019,1.445,4.926c0.314,1.889,0.471,4.039,0.471,6.448c0,1.412-0.03,2.794-0.092,4.144
		c-0.031,0.697-0.074,1.401-0.124,2.114c0.922-0.816,1.83-1.644,2.723-2.483c1.354-1.272,2.67-2.569,3.948-3.887
		c1.282-1.325,2.485-2.629,3.606-3.912C185.103,35.365,186.118,34.137,187.064,32.92L187.064,32.92z M188.533,33.454
		c-0.008,0.031-0.118,0.26-0.139,0.286c-0.988,1.276-2.057,2.571-3.205,3.887c-1.148,1.313-2.369,2.639-3.662,3.972
		c-1.298,1.341-2.631,2.653-3.996,3.938c-1.365,1.283-2.771,2.543-4.214,3.781c-0.506,0.435-1.341,0.005-1.278-0.66
		c0.117-1.248,0.208-2.566,0.271-3.951c0.061-1.351,0.092-2.71,0.092-4.077c0-2.337-0.149-4.401-0.448-6.192
		c-0.296-1.773-0.733-3.282-1.315-4.523l-0.003-0.004c-0.672-1.454-1.585-2.539-2.738-3.255c-1.161-0.717-2.589-1.077-4.284-1.077
		c-0.851,0-1.623,0.132-2.318,0.394c-0.688,0.258-1.312,0.65-1.874,1.176c-0.561,0.526-0.979,1.085-1.252,1.674
		c-0.269,0.58-0.402,1.203-0.402,1.868c0,0.574,0.129,1.053,0.388,1.433c0.262,0.386,0.667,0.691,1.214,0.917l-0.006-0.003
		c0.35,0.14,0.762,0.246,1.237,0.319c0.492,0.075,1.046,0.113,1.663,0.113c2.056,0,3.763,0.251,5.117,0.754
		c1.436,0.533,2.486,1.348,3.152,2.442l0.006,0.013c0.463,0.786,0.804,2.008,1.021,3.667c0.211,1.601,0.316,3.618,0.316,6.052v3.928
		c0,0.125-0.161,0.486-0.253,0.571c-1.021,0.94-2.035,1.871-3.036,2.792c-1.896,1.74-2.854,2.622-2.969,2.728
		c-0.001,0-0.001,0.001-0.002,0.001c-0.002,0.002-0.003,0.004-0.004,0.005l0.004-0.005c0.001,0,0.001-0.001,0.002-0.001
		l-0.002,0.001c-1.828,1.71-3.193,3.328-4.094,4.856c-0.867,1.471-1.301,2.853-1.301,4.145c0,0.707,0.129,1.34,0.387,1.898
		c0.256,0.555,0.647,1.052,1.173,1.49c0.548,0.457,1.125,0.796,1.732,1.019c0.605,0.224,1.253,0.336,1.94,0.336
		c0.934,0,1.845-0.168,2.734-0.501c0.905-0.339,1.798-0.853,2.677-1.541c0.883-0.691,1.602-1.409,2.153-2.151
		c0.535-0.72,0.912-1.465,1.133-2.235c0.006-0.021,0.103-0.22,0.115-0.237c1.04-1.456,2.079-2.848,3.119-4.172v0.003
		c1.058-1.348,2.118-2.636,3.184-3.865l-0.006,0.006c1.359-1.607,2.764-3.146,4.21-4.614c1.444-1.465,2.933-2.859,4.462-4.184
		c0.487-0.422,1.288-0.055,1.288,0.588c0,3.188,0.103,5.969,0.307,8.341c0.2,2.338,0.499,4.234,0.893,5.692v-0.003
		c0.819,3.006,2.032,5.246,3.64,6.719c1.566,1.437,3.538,2.155,5.913,2.155c0.946,0,1.838-0.136,2.677-0.406
		s1.636-0.678,2.388-1.224c0.724-0.525,1.262-1.117,1.612-1.775c0.346-0.649,0.519-1.382,0.519-2.196
		c0-0.73-0.126-1.434-0.378-2.107c-0.253-0.682-0.644-1.352-1.169-2.009c-0.989-1.236-2.054-1.854-3.194-1.854
		c-0.414,0-0.857,0.074-1.333,0.224c-0.501,0.158-1.033,0.397-1.597,0.716c-0.668,0.379-1.314,0.663-1.937,0.853
		c-0.645,0.195-1.272,0.294-1.881,0.294c-1.139,0-2.123-0.28-2.95-0.84c-0.818-0.554-1.464-1.371-1.933-2.451
		c-0.436-1.001-0.761-2.137-0.976-3.404c-0.212-1.254-0.318-2.636-0.318-4.146c0-0.859,0.031-1.667,0.093-2.423
		c0.061-0.763,0.156-1.514,0.287-2.252c0.016-0.093,0.203-0.409,0.277-0.469c1.267-1.029,2.582-2.116,3.947-3.261
		c1.361-1.142,2.699-2.28,4.008-3.411c1.279-1.105,2.234-2.235,2.863-3.39c0.61-1.118,0.914-2.268,0.914-3.448
		c0-1.764-0.444-3.145-1.335-4.143c-0.431-0.481-0.966-0.843-1.606-1.081c-0.674-0.252-1.479-0.378-2.412-0.378
		c-1.204,0-2.338,0.233-3.401,0.699c-1.071,0.471-2.085,1.185-3.041,2.141l0.012-0.016c-0.733,0.772-1.34,1.581-1.819,2.426
		C189.115,31.662,188.762,32.539,188.533,33.454L188.533,33.454z M226.649,39.021c0.491-1.437,1.053-2.778,1.687-4.022
		c1.118-2.193,2.462-4.097,4.033-5.711l0.006-0.006c1.751-1.751,3.696-3.066,5.837-3.943c2.144-0.879,4.471-1.319,6.981-1.319
		c2.284,0,4.278,0.762,5.979,2.284c1.647,1.476,3.007,3.666,4.074,6.572c0.834,2.25,1.46,4.702,1.877,7.358
		c0.417,2.648,0.626,5.479,0.626,8.493c0,1.533-0.036,3.229-0.107,5.091c-0.073,1.896-0.181,3.938-0.322,6.125
		c-0.145,2.231-0.252,4.119-0.322,5.659c-0.07,1.575-0.107,2.822-0.107,3.741c0,1.326,0.121,3.035,0.362,5.127
		c0.244,2.119,0.611,4.622,1.099,7.507c0.247,1.486,0.434,2.811,0.558,3.973c0.127,1.183,0.19,2.192,0.19,3.028
		c0,0.973-0.134,1.907-0.401,2.799c-0.268,0.891-0.669,1.737-1.202,2.538l-0.006,0.009c-0.685,1.004-1.502,1.763-2.452,2.271
		c-0.954,0.513-2.029,0.77-3.22,0.77c-2.221,0-3.961-0.842-5.222-2.522c-0.602-0.802-1.054-1.628-1.354-2.478
		c-0.307-0.863-0.46-1.746-0.46-2.651c0-1.28,0.253-3.026,0.758-5.236c0.494-2.164,1.237-4.793,2.226-7.885
		c0.84-2.625,1.596-4.994,2.264-7.105c0.534-1.684,0.84-2.661,0.918-2.933l0.003-0.013c0.456-1.493,0.854-2.875,1.189-4.146
		c0.343-1.291,0.637-2.507,0.881-3.645l0.003-0.015c0.531-2.248,0.927-4.213,1.188-5.895c0.256-1.665,0.386-3.078,0.386-4.237
		c0-2.097-0.108-3.9-0.328-5.413c-0.214-1.481-0.531-2.679-0.948-3.59c-0.544-1.159-1.307-2.023-2.29-2.596
		c-1.003-0.584-2.253-0.876-3.752-0.876c-1.573,0-2.981,0.381-4.227,1.143c-1.262,0.773-2.372,1.944-3.328,3.515
		c-1.985,3.255-3.298,7.811-3.939,13.667v0.013c-0.038,0.299-0.066,0.647-0.086,1.046c-0.021,0.409-0.031,0.847-0.031,1.313
		c0,0.506,0.016,1.061,0.046,1.663c0,0.001,0,0.002,0,0.003v-0.003c0.001,0.001,0,0.002,0,0.003
		c0.033,0.657,0.078,1.284,0.133,1.884c0.124,1.366,0.11,1.164,0.144,1.548c0.03,0.362,0.046,0.586,0.046,0.669
		c0,0.44-0.084,1.331-0.251,2.672c-0.002,0.009-0.037,0.153-0.04,0.161c-0.307,0.879-0.697,1.685-1.168,2.419
		c-0.475,0.74-1.032,1.409-1.674,2.005c-0.66,0.617-1.367,1.081-2.117,1.393c-0.762,0.316-1.562,0.476-2.399,0.476
		c-2.28,0-4.162-0.495-5.646-1.484v0.003c-0.784-0.523-1.377-1.172-1.776-1.948c-0.396-0.77-0.595-1.645-0.595-2.627
		c0-1.809,0.425-3.861,1.275-6.157v0.003c0.926-2.535,1.619-4.981,2.083-7.34c0.46-2.341,0.69-4.592,0.69-6.753
		c0-1.611-0.1-3.137-0.298-4.575c-0.198-1.439-0.496-2.804-0.894-4.094c-0.375-1.219-0.821-2.12-1.341-2.702
		c-0.438-0.49-0.929-0.734-1.474-0.734c-0.091,0-0.284,0.098-0.579,0.295l-0.004,0.003c-0.393,0.262-0.881,0.665-1.464,1.21
		c-0.681,0.636-1.413,1.114-2.197,1.438c-0.793,0.326-1.628,0.49-2.504,0.49c-0.835,0-1.605-0.149-2.31-0.447
		c-0.709-0.301-1.336-0.747-1.881-1.339c-0.542-0.59-0.949-1.268-1.22-2.032c-0.265-0.751-0.397-1.579-0.397-2.482
		c0-0.929,0.177-1.782,0.529-2.56c0.354-0.777,0.881-1.471,1.581-2.077c0.689-0.599,1.472-1.048,2.345-1.347
		c0.859-0.294,1.802-0.441,2.826-0.441c2.016,0,3.8,0.597,5.351,1.788c1.512,1.161,2.786,2.887,3.823,5.176l-0.007-0.01
		c0.638,1.36,1.196,3.002,1.677,4.926C226.222,36.863,226.445,37.904,226.649,39.021L226.649,39.021z M227.178,42.773
		c-0.133,0.547-0.872,0.645-1.273,0.345c0.047,0.75,0.07,1.516,0.07,2.295c0,2.256-0.24,4.607-0.721,7.051
		c-0.477,2.428-1.193,4.951-2.15,7.57v0.004c-0.784,2.12-1.177,3.996-1.177,5.622c0,0.736,0.14,1.374,0.418,1.914
		c0.274,0.533,0.693,0.988,1.259,1.365v0.003c1.216,0.81,2.81,1.216,4.781,1.216c0.635,0,1.237-0.118,1.803-0.354
		c0.579-0.24,1.131-0.604,1.655-1.092c0.545-0.508,1.02-1.077,1.424-1.708c0.393-0.61,0.719-1.28,0.979-2.006
		c0.153-1.232,0.23-2.035,0.23-2.406c0,0-0.016-0.179-0.047-0.541c-0.094-1.099-0.129-1.51-0.132-1.536
		c-0.067-0.75-0.116-1.399-0.144-1.947v-0.003c-0.03-0.604-0.046-1.184-0.046-1.739c0-0.515,0.011-0.978,0.03-1.387
		c0.021-0.419,0.054-0.806,0.099-1.161v0.012c0.666-6.089,2.053-10.859,4.157-14.312c1.088-1.783,2.37-3.129,3.847-4.033
		c1.496-0.915,3.176-1.373,5.036-1.373c1.774,0,3.284,0.363,4.531,1.089c1.264,0.734,2.237,1.832,2.92,3.288l0.003,0.007
		c0.481,1.052,0.841,2.391,1.076,4.018c0.23,1.596,0.347,3.473,0.347,5.631c0,1.213-0.137,2.705-0.411,4.475
		c-0.271,1.754-0.674,3.759-1.206,6.01l0.004-0.016c-0.246,1.151-0.546,2.392-0.898,3.718c-0.357,1.348-0.759,2.747-1.202,4.2
		l0.002-0.012c-0.086,0.301-0.395,1.294-0.928,2.976c-0.395,1.241-1.151,3.612-2.27,7.11c-0.974,3.041-1.704,5.628-2.19,7.759
		c-0.477,2.085-0.715,3.716-0.715,4.889c0,0.731,0.123,1.443,0.368,2.134c0.251,0.705,0.627,1.395,1.129,2.063
		c0.948,1.264,2.274,1.896,3.98,1.896c0.935,0,1.764-0.194,2.484-0.581c0.726-0.39,1.36-0.982,1.901-1.775
		c0.446-0.671,0.779-1.377,1.002-2.118c0.224-0.744,0.335-1.529,0.335-2.354c0-0.802-0.06-1.757-0.178-2.863
		c-0.121-1.129-0.304-2.422-0.546-3.882c-0.494-2.923-0.864-5.452-1.11-7.587c-0.249-2.161-0.374-3.93-0.374-5.303
		c0-0.963,0.036-2.233,0.107-3.808c0.073-1.608,0.181-3.505,0.322-5.69c0.144-2.229,0.252-4.257,0.321-6.082
		c0.072-1.861,0.107-3.54,0.107-5.036c0-2.958-0.2-5.71-0.601-8.256c-0.4-2.538-1.002-4.892-1.804-7.061
		c-0.977-2.655-2.195-4.639-3.655-5.944c-1.406-1.26-3.052-1.889-4.938-1.889c-2.314,0-4.445,0.399-6.391,1.196
		c-1.945,0.799-3.72,1.997-5.32,3.598c-0.002,0.002-0.004,0.004-0.006,0.006l0.006-0.006c-0.002,0.002-0.004,0.004-0.006,0.006
		c-1.453,1.494-2.704,3.27-3.752,5.328C228.665,37.783,227.816,40.14,227.178,42.773L227.178,42.773z M223.919,34.304
		c-0.315-1.002-0.655-1.894-1.021-2.673l-0.006-0.01c-0.926-2.047-2.045-3.573-3.354-4.579c-1.271-0.977-2.739-1.465-4.401-1.465
		c-0.858,0-1.635,0.119-2.327,0.356c-0.682,0.232-1.291,0.582-1.828,1.047c-0.525,0.456-0.918,0.971-1.179,1.542
		c-0.26,0.572-0.39,1.213-0.39,1.921c0,0.73,0.103,1.387,0.307,1.965c0.2,0.564,0.499,1.063,0.896,1.496
		c0.396,0.431,0.843,0.752,1.34,0.962c0.503,0.213,1.072,0.32,1.707,0.32c0.679,0,1.317-0.123,1.913-0.369
		c0.606-0.25,1.184-0.63,1.729-1.14c0.643-0.601,1.198-1.057,1.664-1.367l-0.003,0.003c0.563-0.376,1.045-0.563,1.444-0.563
		c1.009,0,1.888,0.419,2.636,1.259C223.363,33.362,223.654,33.794,223.919,34.304L223.919,34.304z"/>
	<path fill="#FEFEFE" d="M3.513,42.468c-0.49-1.391-0.838-2.638-1.042-3.743c-0.204-1.104-0.306-2.311-0.306-3.619
		c0-3.027,0.695-5.399,2.085-7.118c1.718-2.126,4.375-3.19,7.974-3.19c6.625,0,11.328,4.459,14.109,13.377
		c1.472,4.58,2.658,12.312,3.557,23.191c0.082-0.245,1.554-6.054,4.416-17.425c3.19-12.763,7.32-19.144,12.391-19.144
		c1.8,0,3.292,0.635,4.479,1.902c1.186,1.269,1.779,2.679,1.779,4.234c0,2.372-2.494,5.357-7.483,8.957
		c-5.97,4.254-10.101,9.49-12.391,15.707c-0.655,1.8-1.083,3.641-1.289,5.522c-0.204,1.881-0.306,4.049-0.306,6.503v4.295
		c0,1.883,0.368,4.091,1.104,6.628c1.636,5.644,2.454,9.039,2.454,10.185c0,2.127-0.655,3.968-1.963,5.521
		c-1.309,1.555-2.863,2.332-4.662,2.332c-1.635,0-3.087-0.858-4.354-2.577c-1.268-1.718-1.902-3.477-1.902-5.276
		c0-0.409,1.39-5.317,4.171-14.726c1.308-4.418,1.962-8.099,1.962-11.045c0-6.626-1.349-11.943-4.048-15.951
		c-3.026-4.5-7.319-6.75-12.881-6.75c-1.39,0-2.679,0.185-3.864,0.552C6.315,41.18,4.987,41.731,3.513,42.468z M74.178,24.798
		c3.108,0,6.38,0.757,9.814,2.271c3.436,1.513,5.152,3.293,5.152,5.338c0,1.309-0.389,2.516-1.165,3.62
		c-0.777,1.104-1.616,1.656-2.515,1.656c-1.391,0-4.254-0.572-8.589-1.718c-2.126-0.572-4.048-0.858-5.765-0.858
		c-3.108,0-5.849,0.45-8.221,1.35c-2.371,0.899-3.557,2.208-3.557,3.927c0,2.372,1.186,3.559,3.557,3.559
		c0.818,0,1.922-0.287,3.313-0.858c3.189-1.31,5.275-1.965,6.256-1.965c1.555,0,3.067,0.553,4.539,1.657
		c1.474,1.104,2.208,2.476,2.208,4.111c0,1.881-0.634,3.375-1.881,4.479c-1.267,1.104-2.883,1.656-4.825,1.656
		c-1.145,0-2.883-0.572-5.234-1.718c-2.372-1.145-3.865-1.718-4.519-1.718c-2.27,0-3.415,1.187-3.415,3.559
		c0,2.618,1.554,4.581,4.642,5.891c2.536,1.062,5.623,1.595,9.283,1.595c2.943,0,5.684-0.286,8.26-0.859
		c2.557-0.571,4.784-1.39,6.646-2.454c0.736-0.408,1.309-0.408,1.718,0c0.409,0.409,0.613,1.064,0.613,1.965
		c0,0.734-0.204,1.513-0.613,2.331c-1.718,2.781-4.232,5.031-7.545,6.749S75.281,70.94,71.11,70.94c-4.09,0-7.831-1.351-11.226-4.05
		c-3.395-2.699-5.092-5.972-5.092-9.816c0-2.292,0.655-4.337,1.963-6.137c1.308-1.799,3.067-3.271,5.275-4.417
		c-1.881-0.9-3.374-2.106-4.478-3.62s-1.655-3.211-1.655-5.093c0-3.846,1.84-6.974,5.52-9.387
		C65.099,26.005,69.352,24.798,74.178,24.798L74.178,24.798z M112.086,54.985c4.007-4.418,7.074-9.061,9.2-13.928
		c2.127-4.868,3.19-10.287,3.19-16.26l0.735-0.368c1.882,1.31,3.477,3.334,4.785,6.074c1.309,2.741,1.963,5.788,1.963,9.143
		c0,5.072-1.636,10.39-4.907,15.952c-2.699,4.663-6.789,9.776-12.268,15.34h-2.331c0-2.537-0.245-5.318-0.736-8.346
		c-0.491-3.025-1.431-6.748-2.822-11.166c-0.654-2.29-1.431-4.295-2.33-6.013c-1.146-2.209-2.577-4.009-4.294-5.399
		c-1.637-1.146-3.271-2.29-4.907-3.437c-2.045-1.718-3.067-3.599-3.067-5.644c0-1.556,0.635-2.884,1.901-3.989
		c1.269-1.104,2.884-1.656,4.846-1.656c3.272,0,5.644,1.882,7.115,5.646c0.655,1.636,1.514,5.439,2.577,11.411
		c0.245,1.637,0.47,3.723,0.675,6.259C111.615,51.141,111.841,53.268,112.086,54.985z M143.983,24.798
		c1.962,0,3.394,0.532,4.293,1.596c0.9,1.063,1.349,2.372,1.349,3.927c0,1.473-2.433,7.117-7.278,16.935
		c-2.27,4.581-3.394,8.549-3.394,11.903c0,1.145,0.225,2.146,0.674,3.006c0.45,0.858,1.248,1.288,2.394,1.288
		c0.98,0,1.737-0.43,2.27-1.288c0.531-0.859,0.797-1.82,0.797-2.884c0-0.818,0.286-1.616,0.858-2.393
		c0.573-0.777,1.513-1.166,2.822-1.166c2.044,0,3.618,0.634,4.724,1.901c1.103,1.269,1.655,2.925,1.655,4.97
		c0,2.536-0.798,4.561-2.393,6.075c-1.594,1.513-3.7,2.271-6.317,2.271c-4.254,0-7.115-2.291-8.588-6.872
		c-0.981-3.109-1.472-7.977-1.472-14.603c0-1.555,0-3.724,0-6.504c0-2.781,0-4.745,0-5.891c0-4.254,0.409-7.199,1.227-8.835
		C138.749,25.943,140.875,24.798,143.983,24.798L143.983,24.798z M187.779,33.266c0.491-1.964,1.513-3.764,3.067-5.399
		c2.045-2.045,4.376-3.068,6.993-3.068c2.044,0,3.577,0.573,4.6,1.718c1.022,1.146,1.533,2.7,1.533,4.663
		c0,2.618-1.349,5.093-4.048,7.424c-2.699,2.332-5.357,4.562-7.975,6.688c-0.245,1.391-0.368,2.904-0.368,4.541
		c0,2.944,0.409,5.357,1.228,7.24c0.817,1.881,2.208,2.821,4.171,2.821c1.063,0,2.208-0.348,3.436-1.043
		c1.226-0.695,2.331-1.043,3.312-1.043c1.391,0,2.658,0.716,3.804,2.147c1.145,1.432,1.717,2.966,1.717,4.603
		c0,1.882-0.818,3.414-2.453,4.602c-1.636,1.186-3.477,1.779-5.521,1.779c-5.152,0-8.587-3.15-10.305-9.449
		c-0.817-3.027-1.227-7.772-1.227-14.234c-3.026,2.618-5.889,5.521-8.588,8.712c-2.126,2.454-4.212,5.113-6.256,7.977
		c-0.491,1.718-1.677,3.312-3.558,4.786c-1.882,1.472-3.845,2.209-5.889,2.209c-1.554,0-2.945-0.512-4.171-1.534
		c-1.228-1.022-1.841-2.353-1.841-3.988c0-2.864,1.881-6.054,5.643-9.571c1.963-1.8,3.967-3.641,6.013-5.521v-3.928
		c0-4.827-0.409-7.936-1.228-9.326c-1.145-1.881-3.68-2.822-7.606-2.822c-1.309,0-2.371-0.164-3.188-0.491
		c-1.392-0.572-2.087-1.595-2.087-3.067c0-1.555,0.634-2.925,1.902-4.111c1.267-1.186,2.841-1.779,4.724-1.779
		c3.68,0,6.256,1.596,7.729,4.786c1.227,2.618,1.84,6.299,1.84,11.045c0,2.78-0.122,5.479-0.368,8.098
		c2.862-2.454,5.582-5.011,8.158-7.669C183.548,38.398,185.816,35.802,187.779,33.266L187.779,33.266z M226.423,42.591
		c1.309-5.399,3.477-9.653,6.502-12.763c3.354-3.354,7.443-5.031,12.269-5.031c4.172,0,7.278,2.782,9.323,8.345
		c1.637,4.418,2.454,9.612,2.454,15.584c0,3.027-0.143,6.749-0.429,11.167c-0.287,4.418-0.43,7.567-0.43,9.449
		c0,2.699,0.491,6.954,1.472,12.762c0.491,2.945,0.736,5.236,0.736,6.873c0,1.8-0.491,3.436-1.472,4.908
		c-1.228,1.8-2.903,2.699-5.03,2.699c-1.964,0-3.497-0.735-4.602-2.209c-1.104-1.473-1.655-3.026-1.655-4.663
		c0-2.454,0.981-6.749,2.944-12.885s3.026-9.49,3.189-10.062c0.899-2.944,1.595-5.562,2.086-7.854
		c1.062-4.499,1.595-7.936,1.595-10.308c0-4.254-0.45-7.363-1.35-9.326c-1.228-2.618-3.477-3.927-6.748-3.927
		c-3.435,0-6.175,1.677-8.219,5.031c-2.045,3.354-3.395,8.017-4.05,13.989c-0.08,0.653-0.121,1.473-0.121,2.454
		c0,1.063,0.061,2.271,0.183,3.619c0.123,1.351,0.185,2.066,0.185,2.147c0,0.409-0.082,1.269-0.246,2.577
		c-0.571,1.638-1.451,3.007-2.636,4.111c-1.187,1.104-2.516,1.657-3.988,1.657c-2.126,0-3.864-0.45-5.214-1.351
		c-1.349-0.899-2.024-2.209-2.024-3.927s0.409-3.681,1.228-5.891c1.881-5.152,2.821-9.938,2.821-14.356
		c0-3.272-0.408-6.238-1.227-8.896c-0.818-2.659-2.004-3.988-3.558-3.988c-0.49,0-1.35,0.573-2.576,1.718
		c-1.228,1.146-2.617,1.718-4.172,1.718c-1.472,0-2.679-0.511-3.618-1.534c-0.941-1.022-1.411-2.352-1.411-3.987
		c0-1.637,0.613-2.986,1.84-4.05s2.78-1.596,4.662-1.596c3.681,0,6.502,2.168,8.465,6.504
		C224.829,33.92,225.768,37.683,226.423,42.591L226.423,42.591z"/>
	<path fill="#E31E24" d="M51.38,94.743v0.554h-8.82v-0.554c0.909,0,1.54-0.145,1.892-0.435c0.353-0.289,0.529-0.817,0.529-1.589
		V81.325c-0.445,0-0.946,0.04-1.502,0.12c-0.928,0.145-1.698,0.577-2.31,1.301c-0.612,0.723-0.918,1.493-0.918,2.312h-0.667v-4.433
		h14.884v4.433h-0.641c0-1.229-0.44-2.16-1.322-2.79c-0.88-0.63-2.062-0.943-3.546-0.943v11.394c0,0.787,0.181,1.32,0.543,1.602
		C49.863,94.603,50.489,94.743,51.38,94.743L51.38,94.743z M58.891,92.937l5.898-12.671h0.64l5.927,12.237
		c0.481,0.835,0.76,1.301,0.834,1.396c0.371,0.466,0.835,0.73,1.392,0.795v0.603h-7.985v-0.603c0.557,0,0.983-0.04,1.281-0.12
		c0.519-0.145,0.777-0.401,0.777-0.771c0-0.289-0.134-0.706-0.403-1.253c-0.269-0.546-0.514-1.061-0.736-1.541h-5.537
		c-0.241,0.448-0.482,0.918-0.723,1.408s-0.362,0.92-0.362,1.29c0,0.528,0.344,0.842,1.03,0.938
		c0.147,0.032,0.297,0.048,0.445,0.048c0.147,0,0.306,0,0.473,0v0.603h-5.008v-0.603c0.519,0,0.956-0.185,1.308-0.554
		C58.382,93.898,58.631,93.499,58.891,92.937L58.891,92.937z M66.125,90.143l-2.476-5.132l-2.296,5.132H66.125z M76.111,94.743
		c0.705-0.08,1.299-0.241,1.781-0.482s0.881-0.602,1.196-1.083l3.839-4.601l-4.341-5.729c-0.37-0.53-0.685-0.908-0.944-1.137
		c-0.445-0.369-0.929-0.554-1.447-0.554v-0.53h8.597v0.555l-0.473-0.024h-0.557c-0.298,0.032-0.537,0.104-0.723,0.217
		c-0.187,0.117-0.279,0.285-0.279,0.514c0,0.192,0.052,0.357,0.154,0.498c0.102,0.137,0.199,0.269,0.291,0.401l2.36,3.184
		l2.146-2.718c0.13-0.148,0.256-0.341,0.376-0.586c0.12-0.241,0.208-0.479,0.264-0.707c0-0.324-0.176-0.537-0.527-0.646
		c-0.354-0.104-0.752-0.155-1.197-0.155v-0.531h6.121v0.531c-0.779,0-1.494,0.204-2.143,0.608c-0.501,0.325-1.039,0.82-1.614,1.486
		l-2.837,3.541l4.924,6.673c0.334,0.401,0.594,0.682,0.779,0.842c0.353,0.29,0.724,0.435,1.113,0.435v0.554h-8.375v-0.554
		c0.706,0,1.197-0.045,1.475-0.133c0.278-0.088,0.417-0.245,0.417-0.47c0-0.241-0.092-0.537-0.278-0.891
		c-0.111-0.209-0.213-0.378-0.306-0.506l-2.365-3.325l-2.697,3.276c-0.334,0.369-0.501,0.747-0.501,1.133
		c0,0.433,0.324,0.714,0.973,0.843c0.242,0.048,0.539,0.072,0.891,0.072v0.554h-6.093V94.743L76.111,94.743z M104.015,88.962v4.674
		c0,0.416,0.204,0.762,0.612,1.035c0.186,0.112,0.459,0.185,0.82,0.217s0.719,0.048,1.071,0.048v0.361h-8.347v-0.361
		c0.501,0,0.891-0.012,1.169-0.036c0.278-0.023,0.52-0.101,0.724-0.229c0.427-0.273,0.639-0.619,0.639-1.035v-5.517
		c0-1.045-0.093-2.016-0.276-2.915c-0.241-1.172-0.622-2.128-1.142-2.867c-0.315-0.466-0.788-0.838-1.418-1.119
		c-0.631-0.281-1.392-0.422-2.281-0.422v-0.313c1.187,0,2.234,0.121,3.143,0.361c0.909,0.241,1.679,0.635,2.309,1.18
		c0.705,0.611,1.271,1.278,1.698,2.001c0.5,0.834,0.861,1.847,1.085,3.034c0.519-2.505,1.168-4.264,1.946-5.275
		c0.668-0.867,1.476-1.301,2.421-1.301c0.668,0,1.233,0.209,1.697,0.627c0.463,0.418,0.695,0.914,0.695,1.493
		c0,0.449-0.162,0.852-0.486,1.204s-0.737,0.53-1.238,0.53c-0.408,0-0.774-0.109-1.099-0.325c-0.325-0.217-0.486-0.501-0.486-0.855
		c0-0.385,0.147-0.715,0.444-0.988c0.296-0.272,0.686-0.409,1.168-0.409c0.39,0,0.585-0.111,0.585-0.336
		c0-0.161-0.116-0.306-0.348-0.435c-0.232-0.128-0.543-0.192-0.933-0.192c-0.834,0-1.576,0.442-2.226,1.324
		c-0.482,0.659-0.89,1.526-1.224,2.602c-0.186,0.627-0.353,1.354-0.501,2.18C104.09,87.729,104.015,88.416,104.015,88.962
		L104.015,88.962z M119.65,80.266l7.206,15.031h-14.828l6.982-15.031H119.65z M122.238,94.405l-4.341-9.398l-4.247,9.398H122.238z
		 M138.531,80.627c1.372,0,2.555,0.342,3.537,1.021c1.1,0.742,1.647,1.71,1.647,2.906c0,1.373-0.659,2.429-1.976,3.176
		c-1.132,0.631-2.541,0.943-4.229,0.943h-2.253v4.047c0,0.771,0.157,1.3,0.473,1.589c0.315,0.29,0.909,0.435,1.78,0.435v0.554
		h-8.429v-0.554c0.815-0.064,1.386-0.241,1.71-0.53c0.325-0.29,0.487-0.786,0.487-1.493v-9.636c0-0.738-0.157-1.221-0.478-1.444
		c-0.209-0.161-0.779-0.322-1.72-0.482v-0.53h7.358h2.093V80.627z M139.347,85.524v0.097v-0.534v-1.289
		c-0.093-0.711-0.334-1.276-0.729-1.698c-0.468-0.501-1.122-0.75-1.961-0.75c-0.371,0-0.691,0.04-0.951,0.12
		c-0.189,0.097-0.311,0.248-0.366,0.449c-0.056,0.2-0.083,0.369-0.083,0.498v5.483c1.122,0,2.007-0.152,2.661-0.461
		C138.759,87.05,139.236,86.412,139.347,85.524z M154.453,80.266c2.448,0,4.521,0.752,6.219,2.253
		c1.696,1.501,2.546,3.319,2.546,5.455c0,2.12-0.863,3.927-2.588,5.421c-1.725,1.493-3.812,2.24-6.26,2.24
		c-2.43,0-4.483-0.743-6.162-2.229c-1.678-1.486-2.518-3.297-2.518-5.433c0-2.103,0.858-3.913,2.573-5.432
		C149.979,81.024,152.042,80.266,154.453,80.266L154.453,80.266z M154.287,81.036c-1.688,0-2.865,0.818-3.533,2.457
		c-0.445,1.075-0.668,2.505-0.668,4.287c0,1.847,0.25,3.357,0.751,4.528c0.742,1.75,1.994,2.626,3.755,2.626
		c1.727,0,2.922-0.844,3.59-2.529c0.427-1.075,0.641-2.554,0.641-4.433c0-1.781-0.261-3.252-0.78-4.407
		C157.282,81.879,156.03,81.036,154.287,81.036L154.287,81.036z M165.248,94.743c1.502,0,2.253-0.667,2.253-1.999v-9.756
		c0-0.691-0.171-1.169-0.52-1.434c-0.348-0.265-0.927-0.397-1.733-0.397v-0.53h6.333l4.915,10.109l4.91-10.109h6.237v0.53
		c-0.181,0.017-0.39,0.04-0.622,0.073c-0.236,0.031-0.491,0.132-0.774,0.301c-0.277,0.167-0.458,0.38-0.542,0.637
		c-0.078,0.258-0.12,0.579-0.12,0.965v9.418c0,0.161,0,0.317,0,0.47s0.023,0.402,0.069,0.747c0.047,0.345,0.265,0.605,0.653,0.782
		c0.297,0.129,0.742,0.193,1.336,0.193v0.554h-8.235v-0.554c0.928-0.113,1.526-0.294,1.794-0.542
		c0.269-0.249,0.403-0.767,0.403-1.554V82.433l-6.176,12.863h-0.668l-6.147-12.525v9.973c0,0.771,0.181,1.296,0.542,1.577
		s0.979,0.422,1.851,0.422v0.554h-5.759L165.248,94.743L165.248,94.743z M198.937,81.157c-1.032,0-1.696,0.152-1.998,0.458
		c-0.208,0.208-0.311,0.617-0.311,1.229v9.973c0,0.723,0.186,1.22,0.557,1.492c0.297,0.226,0.881,0.37,1.752,0.435v0.554h-8.651
		v-0.554c0.723,0,1.294-0.153,1.711-0.458c0.417-0.306,0.626-0.778,0.626-1.421V82.843c0-0.691-0.213-1.149-0.64-1.373
		c-0.26-0.129-0.826-0.232-1.697-0.313v-0.53h8.651L198.937,81.157L198.937,81.157z M212.209,83.253
		c0.26-0.209,0.473-0.409,0.64-0.603c0.259-0.305,0.389-0.57,0.389-0.795c0-0.32-0.204-0.518-0.611-0.59
		c-0.408-0.072-0.928-0.108-1.559-0.108v-0.53h7.262v0.53c-0.964,0-1.92,0.257-2.866,0.771c-0.723,0.401-1.502,0.988-2.337,1.759
		l-2.771,2.441l7.168,7.676c0.278,0.32,0.57,0.545,0.876,0.674s0.71,0.217,1.211,0.266v0.554h-8.903v-0.53l0.891-0.023
		c0.26,0,0.496-0.028,0.709-0.085c0.214-0.056,0.33-0.156,0.349-0.301c0-0.129-0.074-0.321-0.223-0.577
		c-0.148-0.258-0.278-0.442-0.39-0.555l-4.34-4.793l-0.641,0.529v3.782c0,0.771,0.158,1.296,0.474,1.577s0.898,0.422,1.753,0.422
		v0.554h-8.375v-0.554c0.798,0,1.359-0.153,1.684-0.458c0.325-0.306,0.487-0.826,0.487-1.565v-9.636
		c0-0.706-0.153-1.181-0.459-1.421c-0.307-0.24-0.877-0.409-1.712-0.506v-0.53h8.375v0.53l-0.975,0.121
		c-0.519,0.063-0.857,0.253-1.015,0.564c-0.158,0.313-0.237,0.728-0.237,1.241v4.697L212.209,83.253L212.209,83.253z
		 M223.892,92.719v-9.636c0-0.706-0.167-1.181-0.501-1.421c-0.241-0.177-0.796-0.337-1.669-0.481v-0.555h8.401v0.555l-1.001,0.12
		c-0.482,0.049-0.812,0.233-0.988,0.554s-0.264,0.731-0.264,1.229v4.144h5.953v-4.144c0-0.771-0.134-1.281-0.403-1.529
		c-0.269-0.249-0.876-0.373-1.821-0.373v-0.555H240v0.555l-0.89,0.12c-0.521,0.112-0.868,0.31-1.044,0.59
		c-0.177,0.281-0.265,0.679-0.265,1.192v9.636c0,0.739,0.172,1.264,0.515,1.577c0.344,0.313,0.905,0.47,1.684,0.47v0.53h-8.401
		v-0.53c0.705-0.08,1.158-0.152,1.367-0.217c0.496-0.16,0.784-0.458,0.857-0.891V92.72v-4.529h-5.953v4.529
		c0,0.739,0.162,1.244,0.487,1.517c0.324,0.273,0.913,0.45,1.766,0.53v0.53h-8.401v-0.53c0.826-0.08,1.392-0.261,1.702-0.542
		S223.892,93.441,223.892,92.719L223.892,92.719z"/>
	<path fill="#005AA5" d="M1.377,40.938c-0.247-0.7-0.459-1.371-0.637-2.011c-0.177-0.635-0.318-1.236-0.424-1.805
		c-0.108-0.588-0.188-1.183-0.239-1.779C0.026,34.74,0,34.098,0,33.416c0-1.556,0.181-2.95,0.542-4.184
		c0.366-1.247,0.917-2.326,1.651-3.232v0.002c0.911-1.128,2.069-1.975,3.474-2.536c1.388-0.556,3.011-0.833,4.869-0.833
		c3.438,0,6.379,1.158,8.823,3.476c2.411,2.287,4.325,5.698,5.739,10.234l-0.002-0.004c0.746,2.319,1.417,5.423,2.013,9.309
		c0.493,3.216,0.936,6.955,1.329,11.222c0.136-0.535,0.292-1.151,0.469-1.848c0.736-2.903,1.819-7.198,3.25-12.885
		c1.608-6.43,3.458-11.264,5.553-14.501c2.16-3.335,4.592-5.003,7.299-5.003c0.963,0,1.848,0.172,2.655,0.515
		c0.81,0.344,1.534,0.856,2.17,1.538c0.633,0.675,1.107,1.392,1.426,2.15c0.321,0.765,0.481,1.568,0.481,2.408
		c0,2.533-2.561,5.648-7.682,9.343l-0.002,0.002c-2.944,2.099-5.437,4.441-7.478,7.026c-2.035,2.58-3.616,5.399-4.742,8.458v-0.001
		c-0.319,0.876-0.584,1.77-0.796,2.676c-0.211,0.904-0.366,1.816-0.466,2.734c-0.1,0.914-0.176,1.918-0.227,3.009
		c-0.051,1.084-0.077,2.231-0.077,3.444v4.295c0,1.84,0.362,4.006,1.085,6.495c0.826,2.851,1.441,5.118,1.847,6.802
		c0.418,1.733,0.627,2.905,0.627,3.515c0,1.117-0.173,2.161-0.519,3.134c-0.348,0.978-0.867,1.876-1.556,2.695
		c-1.404,1.667-3.08,2.501-5.026,2.501c-0.904,0-1.757-0.236-2.557-0.712c-0.781-0.462-1.508-1.148-2.181-2.061l0.001,0.002
		c-0.663-0.898-1.161-1.809-1.493-2.73c-0.335-0.931-0.503-1.874-0.503-2.829c0-0.246,0.354-1.618,1.061-4.116
		c0.692-2.442,1.736-6.024,3.131-10.743c0.648-2.188,1.135-4.196,1.459-6.021c0.322-1.812,0.483-3.442,0.483-4.889
		c0-3.275-0.333-6.224-0.998-8.844c-0.661-2.604-1.652-4.887-2.969-6.844c-1.467-2.183-3.239-3.817-5.315-4.904
		c-2.079-1.089-4.469-1.634-7.172-1.634c-1.345,0-2.587,0.177-3.725,0.53c-0.574,0.178-1.189,0.403-1.843,0.676
		c-0.651,0.271-1.341,0.587-2.071,0.952C1.8,41.326,1.467,41.19,1.377,40.938L1.377,40.938z M2.099,40.117
		c0.568-0.274,1.117-0.522,1.645-0.742c0.675-0.28,1.318-0.516,1.929-0.705c1.234-0.383,2.569-0.574,4.004-0.574
		c2.858,0,5.396,0.58,7.611,1.741c2.217,1.161,4.106,2.902,5.665,5.22c1.38,2.051,2.416,4.433,3.104,7.144
		c0.684,2.697,1.027,5.722,1.027,9.073c0,1.498-0.166,3.184-0.499,5.052c-0.329,1.854-0.824,3.897-1.485,6.126
		c-1.386,4.688-2.428,8.267-3.127,10.732c-0.682,2.41-1.024,3.697-1.024,3.859c0,0.845,0.149,1.682,0.447,2.509
		c0.303,0.838,0.755,1.667,1.36,2.485l0.002,0.002c0.594,0.806,1.227,1.408,1.897,1.805c0.65,0.384,1.342,0.576,2.074,0.576
		c1.651,0,3.084-0.72,4.297-2.162c0.618-0.734,1.082-1.534,1.388-2.397c0.308-0.867,0.462-1.807,0.462-2.817
		c0-0.534-0.2-1.634-0.6-3.295c-0.412-1.712-1.023-3.965-1.833-6.758c-0.75-2.584-1.125-4.837-1.125-6.759v-4.295
		c0-1.242,0.026-2.405,0.077-3.489c0.051-1.075,0.129-2.098,0.234-3.064c0.104-0.964,0.266-1.914,0.484-2.85
		c0.217-0.934,0.495-1.861,0.83-2.784v-0.002c1.164-3.159,2.793-6.066,4.888-8.722c2.09-2.649,4.648-5.053,7.674-7.208l-0.001,0.001
		c4.855-3.504,7.284-6.361,7.284-8.573c0-0.713-0.137-1.393-0.408-2.04c-0.274-0.652-0.688-1.274-1.243-1.867
		c-0.548-0.587-1.165-1.025-1.847-1.315c-0.686-0.291-1.447-0.436-2.284-0.436c-2.363,0-4.531,1.522-6.502,4.568
		c-2.036,3.144-3.844,7.882-5.427,14.213c-1.431,5.687-2.516,9.98-3.251,12.885c-0.737,2.909-1.129,4.435-1.176,4.575
		c-0.146,0.436-0.889,0.343-0.926-0.111c-0.451-5.446-0.971-10.09-1.559-13.927c-0.59-3.844-1.249-6.897-1.975-9.159l-0.002-0.004
		c-1.366-4.38-3.194-7.657-5.486-9.829c-2.258-2.141-4.981-3.211-8.168-3.211c-1.74,0-3.246,0.253-4.516,0.762
		C4.767,24.85,3.737,25.6,2.931,26.598V26.6c-0.656,0.812-1.15,1.779-1.479,2.902c-0.334,1.141-0.501,2.445-0.501,3.915
		c0,0.629,0.025,1.245,0.077,1.849c0.051,0.607,0.125,1.171,0.221,1.687c0.1,0.536,0.234,1.111,0.405,1.723
		C1.782,39.132,1.93,39.613,2.099,40.117z M72.489,22.634c3.174,0,6.509,0.771,10.007,2.311c1.772,0.781,3.112,1.641,4.015,2.576
		c0.948,0.982,1.422,2.048,1.422,3.198c0,0.7-0.104,1.378-0.315,2.031c-0.209,0.65-0.522,1.271-0.938,1.861
		c-0.425,0.604-0.87,1.06-1.338,1.367c-0.498,0.328-1.021,0.492-1.566,0.492c-1.428,0-4.331-0.578-8.708-1.734h-0.002
		c-1.046-0.282-2.04-0.493-2.982-0.634c-0.935-0.139-1.822-0.209-2.661-0.209c-1.532,0-2.969,0.11-4.309,0.33
		c-1.337,0.22-2.585,0.55-3.743,0.989c-1.112,0.421-1.939,0.932-2.482,1.531c-0.51,0.564-0.766,1.215-0.766,1.95
		c0,2.055,1.027,3.082,3.081,3.082c0.759,0,1.802-0.273,3.133-0.821c1.612-0.661,2.944-1.157,3.996-1.487
		c1.089-0.343,1.903-0.514,2.441-0.514c0.83,0,1.65,0.148,2.462,0.444c0.799,0.292,1.588,0.729,2.362,1.31
		c0.792,0.594,1.389,1.265,1.789,2.011c0.407,0.756,0.61,1.583,0.61,2.479c0,1.002-0.171,1.906-0.509,2.711
		c-0.341,0.812-0.854,1.521-1.534,2.124l-0.002,0.004c-0.68,0.591-1.453,1.036-2.315,1.332c-0.856,0.294-1.799,0.441-2.822,0.441
		c-0.622,0-1.393-0.151-2.312-0.454c-0.896-0.294-1.938-0.732-3.132-1.312h0.002c-1.167-0.564-2.122-0.988-2.866-1.271
		c-0.696-0.266-1.177-0.398-1.446-0.398c-1.953,0-2.938,1.027-2.938,3.083c0,1.197,0.353,2.244,1.058,3.14
		c0.725,0.919,1.822,1.69,3.291,2.313v-0.003c1.236,0.519,2.607,0.908,4.116,1.167c1.517,0.261,3.177,0.392,4.983,0.392
		c1.463,0,2.868-0.07,4.219-0.211c1.359-0.142,2.672-0.354,3.938-0.636c1.255-0.281,2.436-0.624,3.533-1.029
		c1.078-0.398,2.073-0.857,2.978-1.375l0.006-0.002c0.441-0.245,0.846-0.368,1.213-0.368c0.418,0,0.775,0.149,1.072,0.446v0.002
		c0.259,0.26,0.451,0.591,0.577,0.992c0.117,0.375,0.176,0.811,0.176,1.307c0,0.811-0.222,1.659-0.664,2.544
		c0,0-0.021,0.036-0.022,0.037c-0.885,1.435-1.973,2.728-3.259,3.88c-1.284,1.147-2.774,2.162-4.471,3.042
		c-1.692,0.878-3.493,1.536-5.402,1.975c-1.908,0.438-3.923,0.656-6.042,0.656c-2.099,0-4.11-0.346-6.033-1.04
		c-1.919-0.692-3.75-1.729-5.488-3.113c-1.75-1.392-3.065-2.937-3.945-4.634c-0.884-1.704-1.327-3.558-1.327-5.556
		c0-1.19,0.172-2.324,0.515-3.396c0.344-1.072,0.857-2.078,1.54-3.018c0.677-0.931,1.471-1.778,2.38-2.54
		c0.69-0.577,1.447-1.105,2.271-1.585c-0.656-0.366-1.262-0.774-1.818-1.224c-0.782-0.632-1.461-1.343-2.035-2.13
		c-0.58-0.794-1.016-1.643-1.309-2.542c-0.292-0.897-0.438-1.842-0.438-2.831c0-2.006,0.483-3.83,1.448-5.47
		c0.958-1.631,2.388-3.069,4.29-4.315c1.879-1.232,3.906-2.158,6.081-2.774C67.721,22.942,70.035,22.634,72.489,22.634
		L72.489,22.634z M72.489,23.587c-2.37,0-4.598,0.295-6.68,0.886c-2.079,0.59-4.017,1.476-5.818,2.655
		c-1.779,1.167-3.11,2.5-3.992,3.998c-0.875,1.489-1.312,3.153-1.312,4.991c0,0.893,0.129,1.739,0.389,2.537
		c0.26,0.799,0.651,1.557,1.175,2.274c0.529,0.726,1.15,1.377,1.861,1.951c0.715,0.578,1.528,1.086,2.437,1.521
		c0.343,0.164,0.351,0.677,0.013,0.853c-1.072,0.555-2.035,1.19-2.887,1.905c-0.849,0.711-1.589,1.5-2.221,2.369
		c-0.626,0.86-1.094,1.776-1.406,2.75c-0.311,0.971-0.466,2.007-0.466,3.105c0,1.847,0.406,3.555,1.218,5.121
		c0.817,1.575,2.048,3.017,3.692,4.324c1.656,1.317,3.396,2.304,5.217,2.961c1.819,0.656,3.723,0.984,5.712,0.984
		c2.054,0,3.997-0.21,5.829-0.631s3.558-1.052,5.18-1.892c1.614-0.839,3.038-1.808,4.27-2.909c1.218-1.091,2.242-2.304,3.071-3.64
		c0.372-0.747,0.559-1.451,0.559-2.11c0-0.402-0.044-0.744-0.131-1.024c-0.079-0.253-0.194-0.455-0.344-0.604v0.001
		c-0.11-0.111-0.244-0.167-0.399-0.167c-0.206,0-0.456,0.082-0.751,0.245l0.006-0.002c-0.948,0.543-1.991,1.023-3.123,1.44
		c-1.127,0.417-2.348,0.771-3.656,1.064c-1.308,0.291-2.655,0.51-4.045,0.654c-1.399,0.146-2.837,0.219-4.316,0.219
		c-1.854,0-3.568-0.136-5.144-0.406c-1.584-0.273-3.026-0.683-4.324-1.228v0.001c-1.622-0.687-2.846-1.554-3.67-2.6
		c-0.841-1.067-1.263-2.311-1.263-3.727c0-2.69,1.304-4.035,3.891-4.035c0.385,0,0.977,0.154,1.785,0.461
		c0.757,0.288,1.736,0.724,2.94,1.306h0.002c1.158,0.564,2.161,0.986,3.009,1.265c0.821,0.27,1.494,0.404,2.018,0.404
		c0.92,0,1.758-0.13,2.513-0.389c0.745-0.256,1.412-0.639,2-1.15l-0.002,0.004c0.568-0.504,0.998-1.099,1.285-1.782
		c0.288-0.687,0.434-1.468,0.434-2.342c0-0.739-0.165-1.417-0.495-2.029c-0.335-0.625-0.842-1.192-1.521-1.702
		c-0.697-0.523-1.403-0.915-2.116-1.175c-0.702-0.257-1.414-0.385-2.138-0.385c-0.444,0-1.165,0.156-2.159,0.469
		c-1.034,0.324-2.341,0.811-3.918,1.457c-1.45,0.598-2.614,0.896-3.493,0.896c-2.689,0-4.034-1.346-4.034-4.035
		c0-0.981,0.338-1.846,1.013-2.591c0.642-0.709,1.594-1.303,2.853-1.781c1.214-0.46,2.523-0.806,3.926-1.035
		c1.4-0.23,2.888-0.346,4.461-0.346c0.88,0,1.813,0.074,2.799,0.221c0.98,0.146,2.011,0.364,3.091,0.655h-0.002
		c4.292,1.134,7.114,1.701,8.466,1.701c0.354,0,0.702-0.112,1.042-0.336c0.371-0.244,0.733-0.617,1.084-1.118
		c0.361-0.514,0.633-1.049,0.812-1.604c0.178-0.554,0.268-1.135,0.268-1.741c0-0.896-0.386-1.743-1.154-2.539
		c-0.814-0.844-2.053-1.633-3.714-2.364C78.739,24.329,75.532,23.587,72.489,23.587L72.489,23.587z M110.73,52.209
		c1.708-1.947,3.234-3.938,4.576-5.97c1.52-2.299,2.805-4.652,3.856-7.06c1.048-2.4,1.836-4.939,2.36-7.617
		c0.525-2.678,0.789-5.495,0.789-8.452c0-0.132,0.146-0.368,0.263-0.427l0.736-0.368c0.111-0.055,0.383-0.035,0.484,0.036
		c0.979,0.681,1.882,1.546,2.709,2.597c0.82,1.04,1.564,2.262,2.234,3.662c0.669,1.403,1.171,2.886,1.507,4.449
		c0.334,1.557,0.502,3.19,0.502,4.899c0,2.58-0.417,5.224-1.249,7.931c-0.828,2.692-2.071,5.447-3.726,8.261l0.002-0.001
		c-1.364,2.356-3.075,4.821-5.131,7.392c-2.048,2.562-4.451,5.242-7.21,8.041c-0.049,0.051-0.268,0.144-0.338,0.144h-2.331
		c-0.238,0-0.477-0.238-0.477-0.476c0-1.241-0.061-2.557-0.184-3.947c-0.124-1.409-0.307-2.852-0.545-4.323
		c-0.241-1.49-0.598-3.165-1.066-5.021c-0.468-1.854-1.049-3.88-1.74-6.079l-0.004-0.011c-0.325-1.139-0.679-2.199-1.06-3.181
		c-0.378-0.979-0.791-1.894-1.236-2.743v-0.002c-0.558-1.075-1.185-2.052-1.881-2.929c-0.695-0.873-1.459-1.647-4.081-3.57
		c-1.029-0.721-2.061-1.442-3.089-2.163c-0.001,0-0.033-0.025-0.034-0.026c-1.065-0.896-1.869-1.842-2.41-2.837
		c-0.551-1.015-0.826-2.071-0.826-3.173c0-0.848,0.174-1.638,0.521-2.367c0.345-0.723,0.859-1.382,1.543-1.978v-0.002
		c0.68-0.593,1.455-1.037,2.322-1.333c0.859-0.294,1.804-0.44,2.837-0.44c1.745,0,3.256,0.505,4.528,1.515
		c1.253,0.994,2.263,2.472,3.029,4.433l-0.001-0.004c0.336,0.841,0.723,2.226,1.156,4.153c0.434,1.922,0.917,4.374,1.447,7.354
		l0.002,0.013c0.123,0.815,0.241,1.754,0.354,2.811c0.12,1.108,0.229,2.268,0.326,3.479c0.107,1.336,0.213,2.499,0.317,3.486
		C110.585,51.016,110.656,51.631,110.73,52.209L110.73,52.209z M110.749,53.617c-0.262,0.288-0.768,0.133-0.822-0.253
		c-0.122-0.857-0.24-1.825-0.354-2.901c-0.12-1.141-0.229-2.311-0.326-3.51c-0.106-1.325-0.213-2.477-0.318-3.453
		c-0.109-1.022-0.227-1.943-0.349-2.761c-0.533-2.99-1.011-5.428-1.436-7.31c-0.424-1.876-0.795-3.213-1.113-4.008l-0.002-0.003
		c-0.704-1.802-1.616-3.147-2.735-4.034c-1.098-0.872-2.411-1.309-3.937-1.309c-0.931,0-1.774,0.13-2.531,0.389
		c-0.747,0.256-1.414,0.64-2.002,1.152v-0.002c-0.583,0.507-1.021,1.065-1.31,1.672c-0.286,0.6-0.428,1.252-0.428,1.958
		c0,0.945,0.235,1.851,0.706,2.719c0.478,0.879,1.202,1.727,2.17,2.545c1.026,0.718,2.053,1.436,3.077,2.154l1.817,1.272
		c0,0.001,0.026,0.022,0.026,0.022c0.887,0.718,1.698,1.54,2.434,2.466c0.734,0.923,1.396,1.952,1.983,3.084v-0.002
		c0.453,0.867,0.88,1.815,1.277,2.84c0.396,1.023,0.76,2.11,1.089,3.263l-0.004-0.011c0.697,2.218,1.283,4.262,1.756,6.13
		c0.472,1.866,0.832,3.568,1.08,5.104c0.252,1.554,0.439,3.019,0.56,4.39c0.107,1.222,0.168,2.405,0.182,3.553h1.659
		c2.662-2.711,4.997-5.321,7.003-7.828c2.033-2.543,3.717-4.968,5.052-7.272l0.002-0.002c1.616-2.749,2.828-5.436,3.636-8.06
		c0.803-2.61,1.205-5.161,1.205-7.652c0-1.646-0.16-3.214-0.479-4.702c-0.319-1.486-0.798-2.897-1.438-4.236
		c-0.639-1.338-1.347-2.501-2.122-3.484c-0.702-0.893-1.462-1.639-2.277-2.239l-0.217,0.108c-0.017,2.907-0.285,5.688-0.805,8.34
		c-0.538,2.741-1.346,5.347-2.424,7.814c-1.074,2.459-2.386,4.861-3.935,7.204C114.553,49.105,112.768,51.392,110.749,53.617
		L110.749,53.617z M142.294,22.634c1.036,0,1.94,0.144,2.712,0.431c0.794,0.295,1.443,0.739,1.945,1.334
		c0.489,0.578,0.855,1.223,1.1,1.932c0.242,0.705,0.363,1.473,0.363,2.302c0,0.801-0.622,2.643-1.861,5.525
		c-1.213,2.82-3.036,6.693-5.468,11.619c-1.119,2.259-1.956,4.366-2.514,6.321c-0.555,1.944-0.831,3.735-0.831,5.371
		c0,1.068,0.208,1.998,0.621,2.787c0.181,0.344,0.427,0.6,0.739,0.768c0.327,0.177,0.737,0.265,1.23,0.265
		c0.409,0,0.766-0.086,1.069-0.259c0.309-0.175,0.575-0.443,0.797-0.803c0.241-0.391,0.424-0.805,0.544-1.242
		c0.121-0.436,0.181-0.9,0.181-1.393c0-0.463,0.081-0.921,0.243-1.371c0.158-0.441,0.395-0.876,0.709-1.303
		c0.339-0.459,0.784-0.804,1.338-1.032c0.529-0.219,1.152-0.329,1.866-0.329c1.082,0,2.047,0.171,2.892,0.512
		c0.859,0.346,1.591,0.864,2.191,1.555c0.594,0.682,1.039,1.468,1.335,2.356c0.293,0.877,0.438,1.852,0.438,2.926
		c0,1.326-0.211,2.525-0.631,3.594c-0.425,1.077-1.062,2.02-1.91,2.824c-1.688,1.603-3.903,2.402-6.646,2.402
		c-2.238,0-4.116-0.606-5.634-1.821c-1.505-1.204-2.64-2.998-3.405-5.382l-0.003-0.002c-0.499-1.581-0.874-3.607-1.122-6.078
		c-0.247-2.458-0.372-5.349-0.372-8.667V35.382c0-2.144,0.104-3.966,0.312-5.465c0.212-1.525,0.533-2.721,0.965-3.584
		c0.617-1.234,1.503-2.163,2.654-2.782C139.278,22.939,140.662,22.634,142.294,22.634L142.294,22.634z M142.294,23.587
		c-1.475,0-2.708,0.267-3.7,0.8c-0.975,0.525-1.725,1.316-2.252,2.371c-0.387,0.773-0.679,1.87-0.876,3.289
		c-0.201,1.445-0.302,3.225-0.302,5.335v12.394c0,3.307,0.122,6.165,0.365,8.574c0.241,2.396,0.604,4.358,1.086,5.885l-0.002-0.002
		c0.705,2.198,1.738,3.841,3.096,4.927c1.345,1.076,3.024,1.614,5.039,1.614c2.491,0,4.489-0.713,5.99-2.138
		c0.747-0.708,1.306-1.536,1.679-2.482c0.377-0.956,0.565-2.039,0.565-3.248c0-0.972-0.131-1.848-0.391-2.628
		c-0.255-0.767-0.639-1.442-1.148-2.029c-0.503-0.578-1.112-1.011-1.827-1.299c-0.728-0.292-1.574-0.439-2.538-0.439
		c-0.593,0-1.096,0.085-1.506,0.255c-0.388,0.159-0.698,0.398-0.933,0.715c-0.257,0.351-0.45,0.704-0.578,1.061
		c-0.124,0.347-0.187,0.697-0.187,1.052c0,0.571-0.072,1.12-0.218,1.646c-0.145,0.522-0.362,1.02-0.652,1.488
		c-0.309,0.498-0.688,0.875-1.135,1.13c-0.453,0.257-0.966,0.385-1.539,0.385c-0.651,0-1.211-0.126-1.682-0.379
		c-0.484-0.261-0.862-0.65-1.133-1.166c-0.485-0.928-0.728-2.003-0.728-3.227c0-1.723,0.288-3.6,0.866-5.631
		c0.572-2.006,1.431-4.166,2.577-6.481c2.414-4.891,4.231-8.75,5.446-11.574c1.188-2.763,1.782-4.479,1.782-5.15
		c0-0.725-0.104-1.39-0.312-1.993c-0.206-0.599-0.514-1.142-0.924-1.627c-0.396-0.469-0.914-0.822-1.552-1.059
		C144.015,23.708,143.221,23.587,142.294,23.587L142.294,23.587z M185.654,31.365c0.256-0.986,0.642-1.936,1.158-2.846
		c0.53-0.933,1.198-1.823,2.001-2.669l0.008-0.01c1.062-1.063,2.206-1.863,3.429-2.398c1.227-0.539,2.528-0.809,3.9-0.809
		c1.077,0,2.027,0.154,2.85,0.461c0.844,0.315,1.547,0.786,2.106,1.415c1.104,1.235,1.655,2.896,1.655,4.981
		c0,1.388-0.358,2.736-1.072,4.046c-0.703,1.288-1.75,2.534-3.143,3.737c-1.367,1.182-2.709,2.324-4.023,3.427
		c-1.266,1.062-2.541,2.114-3.822,3.157c-0.104,0.617-0.183,1.271-0.238,1.96c-0.062,0.757-0.092,1.532-0.092,2.324
		c0,1.451,0.1,2.765,0.299,3.941c0.198,1.168,0.493,2.205,0.886,3.109c0.373,0.855,0.869,1.493,1.488,1.913
		c0.613,0.415,1.363,0.623,2.249,0.623c0.484,0,0.99-0.081,1.518-0.241c0.542-0.164,1.104-0.41,1.682-0.738
		c0.645-0.365,1.259-0.64,1.842-0.824c0.599-0.188,1.168-0.283,1.705-0.283c1.544,0,2.936,0.776,4.176,2.326
		c0.602,0.753,1.056,1.539,1.361,2.356c0.307,0.823,0.461,1.672,0.461,2.543c0,1.019-0.224,1.946-0.672,2.785
		c-0.443,0.833-1.104,1.566-1.979,2.202c-0.857,0.622-1.771,1.09-2.741,1.402c-0.97,0.312-1.989,0.468-3.059,0.468
		c-2.698,0-4.953-0.829-6.762-2.488c-1.786-1.637-3.12-4.075-4.003-7.312v0c-0.418-1.547-0.73-3.518-0.937-5.912
		c-0.183-2.114-0.284-4.58-0.304-7.397c-1.229,1.094-2.43,2.236-3.605,3.428c-1.421,1.442-2.804,2.958-4.146,4.545l-0.004,0.004
		c-1.062,1.225-2.109,2.497-3.145,3.815v0.002c-1.027,1.312-2.041,2.663-3.035,4.055c-0.264,0.886-0.701,1.74-1.312,2.561
		c-0.618,0.832-1.415,1.63-2.39,2.393c-0.978,0.766-1.982,1.342-3.01,1.728c-1.037,0.389-2.095,0.583-3.171,0.583
		c-0.832,0-1.623-0.138-2.372-0.412c-0.749-0.275-1.451-0.687-2.104-1.231c-0.666-0.556-1.169-1.199-1.507-1.931
		c-0.336-0.729-0.505-1.538-0.505-2.424c0-1.518,0.493-3.111,1.479-4.782c0.964-1.637,2.404-3.35,4.315-5.137l0.004-0.004
		c1.618-1.483,2.534-2.323,2.976-2.729c0.951-0.873,1.912-1.757,2.881-2.649v-3.72c0-2.4-0.1-4.364-0.3-5.891
		c-0.196-1.489-0.482-2.556-0.859-3.195l0.004,0.008c-0.515-0.846-1.354-1.486-2.521-1.919c-1.213-0.449-2.774-0.675-4.681-0.675
		c-0.677,0-1.294-0.043-1.849-0.128c-0.566-0.087-1.072-0.221-1.518-0.398l-0.004-0.002c-0.784-0.323-1.378-0.779-1.777-1.368
		c-0.402-0.591-0.604-1.304-0.604-2.139c0-0.845,0.173-1.643,0.52-2.393c0.345-0.742,0.855-1.432,1.532-2.066
		c0.679-0.635,1.442-1.111,2.29-1.431c0.843-0.317,1.763-0.477,2.759-0.477c1.929,0,3.576,0.423,4.942,1.269
		c1.37,0.849,2.442,2.113,3.219,3.795l-0.002-0.002c0.633,1.35,1.106,2.966,1.419,4.847c0.312,1.87,0.468,4.004,0.468,6.397
		c0,1.405-0.031,2.782-0.093,4.132c-0.042,0.942-0.103,1.891-0.179,2.843c1.119-0.977,2.215-1.972,3.289-2.979
		c1.354-1.273,2.673-2.572,3.955-3.896c1.285-1.325,2.491-2.635,3.618-3.923C183.663,33.851,184.695,32.602,185.654,31.365
		L185.654,31.365z M186.553,31.692c-0.005,0.02-0.074,0.159-0.086,0.175c-0.985,1.274-2.051,2.565-3.192,3.873
		c-1.143,1.308-2.359,2.627-3.651,3.96c-1.292,1.334-2.622,2.644-3.985,3.926c-1.366,1.284-2.768,2.542-4.205,3.774
		c-0.309,0.266-0.819,0.002-0.781-0.404c0.12-1.271,0.211-2.594,0.273-3.966c0.061-1.35,0.092-2.713,0.092-4.091
		c0-2.35-0.151-4.431-0.453-6.241c-0.3-1.799-0.747-3.334-1.342-4.602l-0.001-0.002c-0.696-1.51-1.648-2.638-2.854-3.385
		c-1.211-0.749-2.691-1.123-4.444-1.123c-0.884,0-1.692,0.137-2.424,0.412c-0.726,0.273-1.384,0.687-1.974,1.238
		s-1.029,1.142-1.319,1.769c-0.287,0.621-0.432,1.286-0.432,1.994c0,0.638,0.146,1.173,0.44,1.604
		c0.295,0.434,0.745,0.775,1.35,1.025l-0.004-0.002c0.373,0.148,0.809,0.262,1.306,0.338c0.506,0.078,1.076,0.118,1.707,0.118
		c2.02,0,3.69,0.245,5.012,0.735c1.37,0.509,2.37,1.28,3.001,2.315l0.003,0.008c0.441,0.75,0.769,1.935,0.981,3.553
		c0.208,1.583,0.312,3.587,0.312,6.013v3.927c0,0.077-0.099,0.298-0.154,0.35c-1.021,0.941-2.034,1.872-3.037,2.792
		c-1.556,1.43-2.623,2.409-2.971,2.729c-0.001,0.002-0.002,0.003-0.003,0.004l0.003-0.004c-0.001,0.002-0.002,0.003-0.003,0.004
		c-1.849,1.729-3.23,3.368-4.146,4.922c-0.896,1.519-1.344,2.951-1.344,4.298c0,0.751,0.139,1.426,0.415,2.025
		c0.276,0.598,0.693,1.13,1.254,1.596c0.573,0.479,1.181,0.836,1.82,1.071c0.642,0.236,1.324,0.354,2.046,0.354
		c0.967,0,1.915-0.174,2.84-0.521c0.935-0.351,1.854-0.88,2.756-1.586c0.906-0.709,1.645-1.446,2.211-2.209
		c0.558-0.751,0.952-1.528,1.182-2.334c0.004-0.012,0.063-0.133,0.071-0.144c1.032-1.448,2.069-2.835,3.11-4.161v0.002
		c1.051-1.339,2.109-2.624,3.174-3.853l-0.004,0.003c1.356-1.604,2.755-3.136,4.195-4.597c1.439-1.46,2.921-2.85,4.444-4.168
		c0.298-0.257,0.786-0.033,0.786,0.359c0,3.205,0.103,5.994,0.308,8.366c0.202,2.352,0.504,4.267,0.903,5.746v-0.002
		c0.835,3.061,2.077,5.349,3.727,6.861c1.626,1.49,3.665,2.235,6.119,2.235c0.976,0,1.898-0.14,2.769-0.421
		c0.87-0.28,1.694-0.703,2.473-1.268c0.761-0.55,1.327-1.177,1.7-1.878c0.371-0.694,0.557-1.475,0.557-2.339
		c0-0.763-0.133-1.501-0.398-2.211c-0.267-0.716-0.673-1.413-1.215-2.093c-1.05-1.312-2.194-1.969-3.432-1.969
		c-0.443,0-0.918,0.08-1.422,0.239c-0.521,0.163-1.073,0.41-1.655,0.74c-0.647,0.367-1.272,0.643-1.876,0.825
		c-0.617,0.188-1.216,0.281-1.793,0.281c-1.079,0-2.006-0.263-2.781-0.787c-0.771-0.522-1.381-1.296-1.826-2.321
		c-0.424-0.978-0.742-2.089-0.953-3.333c-0.21-1.236-0.314-2.602-0.314-4.098c0-0.842,0.03-1.642,0.092-2.398
		c0.062-0.759,0.156-1.501,0.283-2.224c0.011-0.057,0.125-0.25,0.17-0.286c1.287-1.047,2.605-2.135,3.95-3.263
		c1.345-1.128,2.682-2.266,4.013-3.416c1.306-1.128,2.283-2.286,2.93-3.472c0.635-1.165,0.953-2.362,0.953-3.593
		c0-1.842-0.472-3.291-1.412-4.345c-0.462-0.518-1.038-0.905-1.729-1.163c-0.709-0.265-1.549-0.396-2.518-0.396
		c-1.244,0-2.418,0.241-3.521,0.726c-1.108,0.485-2.153,1.221-3.135,2.202l0.007-0.01c-0.75,0.79-1.371,1.619-1.863,2.484
		C187.15,29.85,186.788,30.752,186.553,31.692z M224.873,38.59c0.566-1.867,1.249-3.582,2.045-5.145
		c1.104-2.167,2.431-4.047,3.979-5.636l0.004-0.004c1.721-1.724,3.635-3.016,5.738-3.879c2.104-0.862,4.395-1.294,6.866-1.294
		c2.208,0,4.134,0.736,5.778,2.207c1.61,1.441,2.941,3.593,3.992,6.449c0.827,2.233,1.447,4.668,1.862,7.301
		c0.414,2.629,0.621,5.445,0.621,8.448c0,1.524-0.036,3.219-0.107,5.079c-0.072,1.883-0.181,3.922-0.322,6.117
		c-0.144,2.223-0.251,4.111-0.322,5.665c-0.071,1.575-0.107,2.827-0.107,3.754c0,1.336,0.122,3.057,0.364,5.162
		c0.245,2.122,0.612,4.63,1.101,7.522c0.247,1.48,0.433,2.799,0.556,3.953c0.125,1.169,0.188,2.169,0.188,2.996
		c0,0.945-0.13,1.85-0.389,2.713s-0.647,1.683-1.164,2.458l-0.004,0.006c-0.656,0.964-1.438,1.689-2.345,2.176
		c-0.91,0.488-1.936,0.732-3.078,0.732c-2.12,0-3.779-0.801-4.979-2.4c-0.581-0.776-1.019-1.575-1.311-2.396
		c-0.295-0.83-0.442-1.681-0.442-2.551c0-1.261,0.25-2.983,0.749-5.169c0.493-2.155,1.232-4.777,2.22-7.862
		c0.886-2.771,1.642-5.14,2.265-7.105c0.533-1.681,0.84-2.662,0.919-2.941l0.002-0.008c0.453-1.483,0.851-2.868,1.192-4.155
		c0.345-1.297,0.64-2.518,0.885-3.658l0.002-0.01c0.53-2.251,0.928-4.223,1.189-5.916c0.261-1.686,0.392-3.114,0.392-4.284
		c0-2.107-0.11-3.926-0.332-5.455c-0.218-1.508-0.542-2.732-0.971-3.67c0-0.001-0.001-0.003-0.002-0.004l0.002,0.004
		c0-0.001-0.001-0.003-0.002-0.004c-0.57-1.217-1.376-2.127-2.413-2.73c-1.051-0.611-2.351-0.917-3.903-0.917
		c-1.629,0-3.091,0.396-4.383,1.188c-1.305,0.797-2.448,2.003-3.431,3.614c-1,1.643-1.833,3.608-2.495,5.898
		c-0.666,2.303-1.162,4.935-1.486,7.894v0.007c-0.039,0.31-0.068,0.667-0.088,1.07c-0.021,0.409-0.031,0.852-0.031,1.327
		c0,0.517,0.016,1.076,0.046,1.68c0,0.001,0,0.002,0,0.002v-0.002c0,0.001,0,0.002,0,0.002c0.032,0.636,0.077,1.269,0.135,1.896
		c0.101,1.102,0.133,1.442,0.142,1.545c0.03,0.363,0.046,0.579,0.046,0.646c0,0.428-0.083,1.306-0.249,2.635
		c-0.001,0.005-0.022,0.094-0.024,0.099c-0.299,0.855-0.679,1.641-1.138,2.355c-0.459,0.718-1.002,1.367-1.624,1.947
		c-0.636,0.591-1.312,1.036-2.028,1.334c-0.724,0.3-1.484,0.45-2.282,0.45c-2.222,0-4.047-0.477-5.479-1.432v0.002
		c-0.742-0.494-1.301-1.106-1.677-1.835c-0.373-0.724-0.56-1.554-0.56-2.487c0-0.889,0.105-1.842,0.317-2.858
		c0.21-1.007,0.523-2.071,0.939-3.196v0.002c0.931-2.551,1.63-5.013,2.096-7.385c0.464-2.36,0.695-4.632,0.695-6.811
		c0-1.621-0.101-3.159-0.301-4.615c-0.2-1.456-0.502-2.838-0.903-4.142c-0.388-1.263-0.856-2.2-1.404-2.814
		c-0.497-0.559-1.064-0.838-1.699-0.838c-0.151,0-0.401,0.116-0.748,0.348l-0.002,0.002c-0.406,0.271-0.908,0.686-1.503,1.241
		c-0.654,0.609-1.356,1.07-2.106,1.379c-0.755,0.312-1.551,0.467-2.388,0.467c-0.798,0-1.529-0.141-2.193-0.422
		c-0.668-0.283-1.261-0.706-1.775-1.266s-0.9-1.203-1.157-1.929c-0.254-0.717-0.381-1.512-0.381-2.383
		c0-0.885,0.168-1.696,0.503-2.435c0.335-0.737,0.837-1.396,1.503-1.974c0.66-0.572,1.408-1.001,2.243-1.287
		c0.828-0.283,1.738-0.425,2.729-0.425c1.948,0,3.671,0.575,5.166,1.725c1.474,1.132,2.718,2.818,3.732,5.06l-0.003-0.005
		c0.627,1.341,1.18,2.965,1.656,4.871C224.324,35.583,224.615,37.018,224.873,38.59L224.873,38.59z M225.196,41.015
		c-0.107,0.445-0.871,0.404-0.932-0.051c-0.324-2.43-0.72-4.579-1.188-6.448c-0.463-1.856-0.995-3.425-1.593-4.701l-0.005-0.005
		c-0.948-2.095-2.097-3.66-3.445-4.696c-1.324-1.019-2.854-1.526-4.586-1.526c-0.889,0-1.697,0.123-2.424,0.372
		c-0.718,0.245-1.36,0.614-1.927,1.105c-0.561,0.485-0.98,1.034-1.257,1.646c-0.278,0.612-0.418,1.294-0.418,2.044
		c0,0.766,0.108,1.455,0.325,2.067c0.213,0.603,0.532,1.137,0.959,1.6c0.425,0.462,0.906,0.808,1.445,1.034
		c0.541,0.23,1.149,0.345,1.824,0.345c0.717,0,1.393-0.131,2.027-0.392c0.642-0.264,1.248-0.663,1.819-1.197
		c0.633-0.591,1.175-1.036,1.627-1.337l-0.002,0.002c0.51-0.341,0.936-0.512,1.275-0.512c0.919,0,1.723,0.386,2.41,1.157
		c0.638,0.715,1.173,1.771,1.602,3.168c0.416,1.354,0.729,2.785,0.937,4.294c0.208,1.511,0.312,3.092,0.312,4.742
		c0,2.237-0.238,4.569-0.715,6.993c-0.475,2.414-1.187,4.923-2.137,7.526v0.001c-0.401,1.085-0.702,2.105-0.9,3.062
		c-0.197,0.945-0.296,1.835-0.296,2.665c0,0.783,0.15,1.468,0.451,2.053c0.299,0.579,0.753,1.072,1.36,1.477v0.002
		c1.268,0.846,2.918,1.269,4.95,1.269c0.674,0,1.313-0.126,1.918-0.377c0.612-0.254,1.194-0.639,1.745-1.151
		c0.562-0.523,1.054-1.112,1.473-1.765c0.411-0.641,0.751-1.342,1.021-2.103c0.156-1.262,0.236-2.087,0.236-2.473
		c0-0.016-0.016-0.204-0.047-0.567c-0.07-0.816-0.112-1.299-0.134-1.537c-0.065-0.722-0.113-1.367-0.142-1.935v-0.002
		c-0.03-0.604-0.046-1.18-0.046-1.727c0-0.505,0.01-0.963,0.03-1.371c0.021-0.415,0.053-0.796,0.096-1.142v0.009
		c0.33-3.011,0.837-5.697,1.521-8.058c0.686-2.373,1.552-4.416,2.596-6.129c1.062-1.742,2.312-3.052,3.746-3.931
		c1.447-0.887,3.073-1.328,4.879-1.328c1.72,0,3.18,0.348,4.378,1.046c1.211,0.704,2.143,1.756,2.799,3.155l0.002,0.004
		c0.47,1.024,0.82,2.337,1.052,3.935c0.229,1.581,0.343,3.443,0.343,5.589c0,1.202-0.136,2.679-0.406,4.429
		c-0.27,1.742-0.671,3.737-1.202,5.986l0.002-0.009c-0.246,1.149-0.544,2.384-0.895,3.704c-0.354,1.331-0.754,2.729-1.2,4.188
		l0.002-0.007c-0.084,0.294-0.394,1.284-0.928,2.968c-0.438,1.387-1.195,3.757-2.268,7.109c-0.976,3.051-1.708,5.646-2.197,7.783
		c-0.481,2.11-0.723,3.762-0.723,4.957c0,0.765,0.129,1.51,0.385,2.234c0.261,0.732,0.652,1.447,1.174,2.144
		c1.009,1.345,2.416,2.017,4.221,2.017c0.985,0,1.861-0.206,2.628-0.616c0.769-0.412,1.438-1.036,2.006-1.869
		c0.001-0.002,0.003-0.004,0.004-0.006l-0.004,0.006c0.001-0.002,0.003-0.004,0.004-0.006c0.463-0.694,0.811-1.428,1.041-2.199
		c0.231-0.771,0.348-1.586,0.348-2.441c0-0.807-0.06-1.772-0.181-2.895c-0.121-1.135-0.305-2.436-0.548-3.898
		c-0.493-2.916-0.862-5.44-1.107-7.571c-0.248-2.148-0.372-3.905-0.372-5.27c0-0.954,0.036-2.22,0.107-3.794
		c0.072-1.597,0.181-3.491,0.322-5.685c0.143-2.221,0.251-4.252,0.321-6.091c0.071-1.861,0.107-3.544,0.107-5.046
		c0-2.97-0.202-5.738-0.605-8.303c-0.403-2.562-1.01-4.935-1.818-7.118c-0.993-2.705-2.24-4.728-3.735-6.066
		c-1.465-1.311-3.178-1.965-5.142-1.965c-2.353,0-4.521,0.406-6.506,1.22c-1.984,0.814-3.792,2.035-5.422,3.666
		c-0.001,0.001-0.002,0.003-0.003,0.004l0.003-0.004c-0.001,0.001-0.002,0.003-0.003,0.004c-1.478,1.517-2.746,3.318-3.809,5.402
		C226.698,35.976,225.841,38.354,225.196,41.015L225.196,41.015z"/>
	<path fill="#005AA5" d="M1.826,40.78c-0.491-1.391-0.839-2.638-1.042-3.742c-0.205-1.105-0.308-2.312-0.308-3.621
		c0-3.025,0.695-5.398,2.086-7.117c1.717-2.127,4.375-3.189,7.974-3.189c6.625,0,11.327,4.458,14.108,13.375
		c1.472,4.581,2.658,12.312,3.557,23.193c0.083-0.245,1.554-6.055,4.417-17.426c3.19-12.762,7.319-19.143,12.39-19.143
		c1.799,0,3.292,0.633,4.478,1.901c1.186,1.268,1.778,2.68,1.778,4.233c0,2.373-2.494,5.358-7.483,8.959
		c-5.97,4.254-10.1,9.49-12.39,15.707c-0.654,1.799-1.084,3.64-1.289,5.522c-0.204,1.881-0.307,4.049-0.307,6.503v4.295
		c0,1.881,0.368,4.091,1.105,6.626c1.635,5.646,2.453,9.041,2.453,10.186c0,2.127-0.654,3.969-1.963,5.522
		c-1.308,1.554-2.862,2.331-4.662,2.331c-1.636,0-3.087-0.859-4.355-2.576c-1.268-1.719-1.901-3.477-1.901-5.277
		c0-0.409,1.39-5.318,4.171-14.726c1.309-4.418,1.963-8.099,1.963-11.044c0-6.626-1.35-11.944-4.048-15.952
		c-3.026-4.5-7.32-6.75-12.882-6.75c-1.39,0-2.678,0.185-3.864,0.553C4.626,39.491,3.298,40.044,1.826,40.78L1.826,40.78z
		 M72.489,23.11c3.108,0,6.379,0.756,9.814,2.271c3.436,1.513,5.153,3.291,5.153,5.338c0,1.309-0.389,2.516-1.166,3.619
		c-0.776,1.105-1.615,1.656-2.516,1.656c-1.39,0-4.252-0.572-8.587-1.718c-2.126-0.572-4.048-0.859-5.767-0.859
		c-3.106,0-5.847,0.45-8.219,1.351c-2.371,0.9-3.557,2.209-3.557,3.927c0,2.372,1.186,3.559,3.557,3.559
		c0.818,0,1.922-0.286,3.313-0.858c3.189-1.309,5.274-1.964,6.257-1.964c1.554,0,3.067,0.553,4.539,1.656
		c1.472,1.104,2.208,2.475,2.208,4.111c0,1.882-0.635,3.374-1.881,4.479c-1.269,1.104-2.883,1.656-4.825,1.656
		c-1.146,0-2.884-0.573-5.234-1.718c-2.372-1.146-3.865-1.718-4.519-1.718c-2.27,0-3.415,1.186-3.415,3.559
		c0,2.617,1.554,4.581,4.641,5.889c2.536,1.064,5.623,1.597,9.284,1.597c2.943,0,5.684-0.287,8.26-0.859
		c2.556-0.573,4.784-1.391,6.645-2.454c0.736-0.41,1.309-0.41,1.719,0c0.407,0.409,0.612,1.063,0.612,1.963
		c0,0.736-0.205,1.514-0.612,2.331c-1.719,2.782-4.233,5.031-7.545,6.75c-3.313,1.718-7.055,2.577-11.227,2.577
		c-4.089,0-7.831-1.351-11.225-4.05c-3.395-2.7-5.091-5.972-5.091-9.817c0-2.29,0.654-4.336,1.963-6.135
		c1.308-1.8,3.066-3.273,5.275-4.418c-1.881-0.899-3.374-2.106-4.479-3.62c-1.104-1.514-1.656-3.21-1.656-5.093
		c0-3.845,1.84-6.974,5.52-9.388C63.41,24.316,67.664,23.11,72.489,23.11L72.489,23.11z M110.397,53.297
		c4.008-4.417,7.075-9.06,9.201-13.928c2.127-4.867,3.189-10.287,3.189-16.259l0.736-0.368c1.881,1.309,3.477,3.333,4.784,6.073
		c1.309,2.741,1.963,5.788,1.963,9.144c0,5.071-1.636,10.389-4.907,15.952c-2.699,4.662-6.788,9.775-12.268,15.339h-2.331
		c0-2.536-0.246-5.317-0.736-8.345s-1.432-6.749-2.821-11.167c-0.654-2.29-1.432-4.294-2.331-6.013
		c-1.146-2.209-2.576-4.009-4.294-5.399c-1.636-1.146-3.271-2.291-4.907-3.436c-2.045-1.718-3.066-3.601-3.066-5.646
		c0-1.554,0.633-2.884,1.901-3.987c1.267-1.105,2.883-1.657,4.846-1.657c3.271,0,5.644,1.882,7.115,5.645
		c0.654,1.637,1.513,5.44,2.576,11.413c0.246,1.637,0.471,3.722,0.675,6.258C109.928,49.451,110.152,51.578,110.397,53.297
		L110.397,53.297z M142.294,23.11c1.964,0,3.395,0.53,4.295,1.595c0.899,1.064,1.349,2.372,1.349,3.927
		c0,1.473-2.433,7.118-7.279,16.935c-2.269,4.582-3.395,8.549-3.395,11.902c0,1.146,0.226,2.148,0.676,3.007
		c0.45,0.859,1.247,1.289,2.392,1.289c0.982,0,1.737-0.43,2.27-1.289c0.532-0.858,0.798-1.82,0.798-2.884
		c0-0.817,0.286-1.615,0.859-2.394c0.571-0.775,1.513-1.165,2.82-1.165c2.046,0,3.62,0.635,4.725,1.902
		c1.104,1.269,1.656,2.925,1.656,4.97c0,2.536-0.798,4.561-2.393,6.075c-1.596,1.513-3.701,2.27-6.318,2.27
		c-4.253,0-7.116-2.291-8.587-6.873c-0.982-3.107-1.473-7.976-1.473-14.602c0-1.555,0-3.723,0-6.505c0-2.781,0-4.744,0-5.889
		c0-4.255,0.408-7.199,1.227-8.836C137.06,24.255,139.186,23.11,142.294,23.11L142.294,23.11z M186.091,31.577
		c0.491-1.964,1.514-3.763,3.067-5.4c2.044-2.045,4.375-3.066,6.992-3.066c2.046,0,3.579,0.572,4.601,1.718s1.534,2.699,1.534,4.663
		c0,2.617-1.351,5.093-4.049,7.424s-5.356,4.561-7.974,6.688c-0.246,1.392-0.368,2.904-0.368,4.54c0,2.945,0.409,5.359,1.227,7.24
		c0.817,1.882,2.209,2.822,4.172,2.822c1.062,0,2.208-0.348,3.434-1.042c1.228-0.696,2.331-1.044,3.312-1.044
		c1.391,0,2.658,0.716,3.803,2.147c1.146,1.432,1.719,2.966,1.719,4.602c0,1.882-0.818,3.416-2.454,4.602
		c-1.636,1.188-3.476,1.78-5.521,1.78c-5.152,0-8.588-3.149-10.305-9.449c-0.818-3.026-1.228-7.771-1.228-14.234
		c-3.025,2.617-5.889,5.521-8.588,8.713c-2.126,2.454-4.212,5.113-6.256,7.976c-0.491,1.719-1.678,3.313-3.558,4.786
		c-1.882,1.473-3.844,2.209-5.889,2.209c-1.555,0-2.944-0.512-4.172-1.534c-1.227-1.022-1.84-2.352-1.84-3.988
		c0-2.863,1.881-6.054,5.644-9.571c1.963-1.8,3.967-3.641,6.011-5.522v-3.927c0-4.826-0.409-7.936-1.227-9.325
		c-1.146-1.883-3.681-2.822-7.606-2.822c-1.309,0-2.371-0.164-3.189-0.492c-1.39-0.572-2.086-1.595-2.086-3.067
		c0-1.554,0.635-2.925,1.901-4.11c1.269-1.188,2.843-1.779,4.724-1.779c3.681,0,6.257,1.595,7.729,4.785
		c1.227,2.618,1.84,6.3,1.84,11.044c0,2.782-0.123,5.481-0.368,8.1c2.862-2.454,5.582-5.011,8.158-7.67
		S184.128,34.113,186.091,31.577z M224.735,40.902c1.309-5.398,3.476-9.653,6.502-12.761c3.354-3.354,7.442-5.031,12.268-5.031
		c4.171,0,7.279,2.781,9.323,8.344c1.637,4.418,2.454,9.612,2.454,15.585c0,3.027-0.144,6.749-0.43,11.166
		c-0.286,4.418-0.429,7.567-0.429,9.449c0,2.7,0.49,6.953,1.472,12.763c0.491,2.944,0.736,5.235,0.736,6.871
		c0,1.8-0.49,3.437-1.473,4.909c-1.226,1.799-2.903,2.699-5.03,2.699c-1.962,0-3.495-0.736-4.6-2.208
		c-1.104-1.473-1.656-3.028-1.656-4.663c0-2.455,0.98-6.749,2.944-12.886c1.963-6.135,3.025-9.489,3.189-10.062
		c0.9-2.945,1.596-5.562,2.085-7.854c1.064-4.499,1.596-7.936,1.596-10.308c0-4.254-0.45-7.362-1.35-9.326
		c-1.227-2.618-3.476-3.927-6.748-3.927c-3.434,0-6.174,1.678-8.219,5.031c-2.045,3.354-3.395,8.018-4.049,13.988
		c-0.082,0.655-0.123,1.474-0.123,2.455c0,1.063,0.062,2.27,0.185,3.62c0.123,1.35,0.184,2.065,0.184,2.147
		c0,0.409-0.081,1.268-0.245,2.577c-0.572,1.636-1.451,3.007-2.638,4.11c-1.186,1.105-2.515,1.657-3.986,1.657
		c-2.127,0-3.865-0.45-5.214-1.351c-1.35-0.898-2.024-2.208-2.024-3.926c0-1.719,0.409-3.683,1.227-5.891
		c1.882-5.154,2.821-9.94,2.821-14.357c0-3.271-0.409-6.238-1.227-8.896c-0.818-2.659-2.004-3.988-3.558-3.988
		c-0.491,0-1.349,0.572-2.576,1.719c-1.227,1.145-2.617,1.717-4.171,1.717c-1.473,0-2.679-0.512-3.62-1.533
		c-0.939-1.023-1.41-2.352-1.41-3.989c0-1.636,0.613-2.984,1.84-4.049c1.228-1.064,2.781-1.595,4.662-1.595
		c3.681,0,6.502,2.168,8.465,6.503C223.139,32.231,224.081,35.993,224.735,40.902L224.735,40.902z"/>
</g>
</svg>
